<?xml version="1.0" encoding="UTF-8" standalone="no"?>
<svg
   xmlns:dc="http://purl.org/dc/elements/1.1/"
   xmlns:cc="http://creativecommons.org/ns#"
   xmlns:rdf="http://www.w3.org/1999/02/22-rdf-syntax-ns#"
   xmlns:svg="http://www.w3.org/2000/svg"
   xmlns="http://www.w3.org/2000/svg"
   xmlns:sodipodi="http://sodipodi.sourceforge.net/DTD/sodipodi-0.dtd"
   xmlns:inkscape="http://www.inkscape.org/namespaces/inkscape"
   version="1.0"
   width="1350.000000pt"
   height="1773.000000pt"
   viewBox="0 0 1350.000000 1773.000000"
   preserveAspectRatio="xMidYMid meet"
   id="svg238"
   sodipodi:docname="ficct_escudo_bn.svg">
  <defs
     id="defs242" />
  <sodipodi:namedview
     pagecolor="#ffffff"
     bordercolor="#666666"
     borderopacity="1"
     objecttolerance="10"
     gridtolerance="10"
     guidetolerance="10"
     inkscape:pageopacity="0"
     inkscape:pageshadow="2"
     inkscape:window-width="640"
     inkscape:window-height="480"
     id="namedview240" />
  <metadata
     id="metadata2">
Created by potrace 1.10, written by Peter Selinger 2001-2011
<rdf:RDF>
  <cc:Work
     rdf:about="">
    <dc:format>image/svg+xml</dc:format>
    <dc:type
       rdf:resource="http://purl.org/dc/dcmitype/StillImage" />
  </cc:Work>
</rdf:RDF>
</metadata>
  <g
     transform="translate(0.000000,1773.000000) scale(0.100000,-0.100000)"
     fill="#000000"
     stroke="none"
     id="g236">
    <path
       d="M6375 17170 c-38 -4 -110 -11 -160 -15 -49 -3 -126 -12 -170 -20 -44 -7 -127 -21 -185 -30 -58 -9 -125 -21 -150 -26 -25 -6 -72 -18 -105 -25 -33 -8 -78 -19 -100 -23 -47 -10 -149 -37 -185 -50 -14 -4 -50 -16 -80 -25 -81 -23 -168 -52 -230 -76 -30 -12 -75 -28 -100 -37 -40 -13 -277 -112 -319 -133 -145 -70 -390 -196 -402 -206 -8 -8 -18 -14 -22 -14 -12 0 -262 -154 -386 -237 -348 -235 -628 -469 -971 -813 -336 -335 -616 -678 -896 -1095 -116 -172 -334 -530 -382 -625 -13 -25 -32 -61 -44 -80 -24 -40 -238 -467 -238 -475 0 -3 -14 -35 -31 -72 -93 -205 -127 -283 -164 -383 -7 -19 -26 -69 -43 -110 -17 -41 -33 -84 -37 -95 -4 -11 -29 -81 -55 -155 -68 -194 -85 -246 -135 -415 -10 -33 -24 -78 -30 -100 -19 -59 -42 -141 -60 -215 -9 -36 -23 -90 -32 -120 -35 -128 -42 -159 -58 -240 -10 -47 -23 -110 -30 -140 -15 -63 -37 -175 -60 -305 -9 -49 -22 -124 -30 -165 -8 -41 -21 -129 -30 -195 -8 -66 -20 -151 -26 -190 -6 -38 -13 -92 -15 -120 -3 -27 -11 -111 -19 -185 -37 -332 -46 -562 -46 -1065 0 -275 5 -563 11 -640 6 -77 15 -194 20 -260 13 -170 29 -324 45 -435 8 -52 21 -149 30 -215 9 -66 23 -158 31 -205 9 -47 22 -123 30 -170 24 -136 44 -241 59 -300 7 -30 21 -91 30 -135 19 -91 42 -185 56 -233 12 -39 66 -241 78 -292 5 -19 13 -46 19 -60 5 -14 18 -54 27 -90 9 -36 23 -81 30 -100 7 -19 29 -84 49 -145 20 -60 52 -155 72 -210 19 -55 39 -111 44 -125 12 -36 43 -117 69 -180 13 -30 30 -73 39 -95 8 -22 28 -68 44 -103 15 -34 28 -64 28 -67 0 -3 14 -35 31 -72 17 -38 37 -81 44 -98 30 -64 237 -482 254 -510 10 -16 37 -66 61 -110 40 -73 65 -118 97 -170 6 -11 44 -74 84 -140 173 -286 440 -658 663 -924 39 -47 55 -66 159 -186 85 -97 495 -506 593 -590 135 -116 283 -237 389 -317 109 -82 233 -168 242 -168 3 0 22 -13 42 -28 20 -16 64 -46 99 -68 35 -21 75 -47 90 -56 15 -10 34 -21 42 -25 8 -3 33 -18 55 -32 87 -55 351 -193 470 -246 33 -14 78 -35 100 -45 65 -30 138 -62 165 -70 14 -5 50 -18 80 -30 30 -12 66 -25 80 -30 14 -5 50 -18 80 -30 30 -11 71 -25 90 -30 19 -5 58 -16 85 -24 160 -48 194 -58 230 -65 22 -5 63 -14 90 -21 28 -6 75 -18 105 -25 30 -8 102 -21 160 -30 58 -9 143 -23 190 -30 191 -30 321 -39 635 -43 260 -3 363 0 485 13 220 23 516 68 596 91 28 8 59 14 69 14 10 0 41 6 69 14 28 8 80 22 116 32 36 9 83 22 105 29 22 7 67 21 100 31 59 17 194 63 268 90 20 8 54 20 75 28 205 77 560 250 775 378 82 48 150 88 152 88 6 0 321 214 351 239 18 14 67 52 110 84 258 189 709 607 915 847 40 47 76 87 79 90 4 3 54 61 111 130 152 181 334 427 484 651 164 247 154 231 162 249 4 8 18 33 32 55 36 56 49 77 61 100 6 11 19 34 30 50 11 17 26 44 34 60 8 17 40 75 71 130 30 55 107 206 171 335 63 129 122 248 130 263 8 16 14 32 14 37 0 5 20 52 45 104 25 53 45 100 45 105 0 5 14 42 31 82 17 41 38 92 46 114 9 22 19 49 24 60 28 66 44 109 70 185 48 140 128 381 145 440 9 30 22 73 29 95 20 66 42 146 60 215 33 127 46 176 61 226 8 28 14 59 14 69 0 10 6 41 14 69 8 28 22 87 31 131 9 44 23 107 30 140 8 33 20 98 29 145 8 47 21 123 30 170 8 47 22 137 31 200 9 63 22 160 30 215 8 55 21 168 29 250 8 83 20 197 26 255 41 392 41 1366 1 1750 -6 52 -17 167 -26 255 -15 151 -23 213 -61 473 -40 278 -93 560 -144 767 -7 28 -16 68 -21 90 -8 40 -18 82 -44 180 -8 28 -21 79 -30 115 -9 36 -22 85 -30 110 -61 207 -81 270 -116 375 -22 66 -44 134 -49 150 -13 45 -74 212 -99 275 -13 30 -29 71 -36 90 -25 66 -77 195 -100 245 -13 28 -42 95 -65 149 -23 54 -45 106 -50 115 -5 9 -52 104 -104 211 -53 107 -112 224 -132 260 -20 36 -54 99 -77 140 -160 296 -487 787 -689 1039 -38 47 -82 102 -98 121 -16 19 -43 54 -62 76 -204 253 -630 678 -873 873 -38 31 -72 59 -75 62 -13 15 -337 254 -435 320 -100 68 -288 185 -325 202 -8 4 -31 17 -50 28 -81 50 -311 168 -415 214 -33 14 -67 30 -76 35 -37 19 -203 88 -269 110 -14 5 -50 18 -80 30 -59 22 -142 50 -230 76 -108 32 -146 43 -194 59 -27 8 -59 15 -71 15 -12 0 -41 6 -66 14 -81 25 -189 46 -469 90 -259 41 -791 59 -1015 36z m560 -100 c313 -15 621 -56 855 -114 30 -8 89 -22 130 -31 41 -9 93 -22 115 -29 22 -8 67 -21 100 -31 33 -10 92 -29 130 -42 39 -14 84 -28 100 -33 17 -5 55 -18 85 -30 30 -12 67 -25 81 -30 14 -4 34 -12 45 -17 10 -6 37 -18 59 -28 80 -35 101 -44 160 -70 98 -44 347 -171 415 -213 19 -12 44 -26 55 -32 11 -6 34 -19 50 -30 17 -11 39 -24 50 -29 11 -5 58 -34 104 -65 46 -31 85 -56 87 -56 7 0 154 -104 295 -211 167 -126 336 -267 460 -383 41 -39 91 -85 110 -102 101 -91 425 -439 537 -578 19 -22 48 -59 65 -80 18 -22 55 -67 82 -101 28 -34 68 -88 90 -119 22 -31 75 -103 118 -161 42 -58 77 -106 77 -109 0 -2 34 -54 75 -115 82 -122 260 -414 320 -526 21 -38 53 -97 71 -130 17 -33 76 -148 129 -255 53 -107 100 -202 105 -211 4 -9 27 -61 50 -115 23 -54 52 -121 65 -149 12 -27 30 -69 39 -92 38 -101 49 -130 61 -158 7 -16 20 -49 29 -72 9 -24 23 -62 32 -85 33 -87 51 -140 114 -333 27 -82 56 -171 65 -196 8 -26 15 -54 15 -63 0 -8 6 -30 14 -48 17 -41 61 -197 76 -268 4 -19 19 -82 34 -140 14 -58 33 -136 42 -175 8 -38 21 -97 29 -130 22 -98 50 -246 90 -480 13 -74 23 -149 60 -425 18 -137 34 -311 45 -485 5 -77 14 -201 19 -275 14 -172 14 -887 1 -1045 -6 -66 -15 -187 -20 -270 -11 -179 -26 -342 -45 -485 -8 -58 -21 -159 -30 -225 -8 -66 -21 -147 -27 -180 -6 -33 -14 -82 -18 -110 -11 -78 -56 -317 -75 -390 -7 -27 -20 -88 -29 -135 -16 -78 -26 -118 -61 -255 -7 -27 -21 -79 -30 -115 -19 -75 -42 -157 -60 -215 -20 -66 -41 -135 -75 -245 -17 -58 -38 -120 -46 -138 -8 -18 -14 -37 -14 -43 0 -6 -6 -25 -14 -42 -8 -18 -16 -41 -19 -52 -8 -29 -26 -79 -60 -165 -16 -41 -36 -93 -44 -115 -8 -22 -21 -53 -28 -70 -7 -16 -20 -50 -30 -75 -22 -58 -38 -96 -104 -243 -17 -37 -31 -70 -31 -73 0 -4 -38 -83 -84 -178 -47 -94 -90 -182 -96 -196 -5 -14 -18 -38 -28 -55 -10 -16 -37 -64 -59 -105 -64 -118 -129 -237 -148 -268 -6 -9 -22 -35 -35 -57 -35 -56 -43 -70 -91 -149 -40 -67 -212 -325 -251 -376 -10 -14 -66 -90 -124 -170 -59 -80 -112 -149 -118 -155 -7 -5 -34 -39 -62 -75 -51 -67 -88 -111 -115 -139 -8 -9 -46 -52 -84 -96 -157 -183 -510 -532 -660 -653 -27 -22 -88 -73 -135 -112 -47 -40 -105 -86 -130 -103 -25 -16 -74 -53 -110 -82 -227 -179 -741 -480 -1034 -605 -55 -23 -106 -45 -115 -50 -15 -7 -47 -20 -146 -57 -22 -9 -49 -19 -60 -24 -38 -16 -189 -67 -280 -94 -33 -10 -78 -23 -100 -30 -70 -22 -202 -54 -370 -89 -426 -88 -932 -116 -1390 -77 -168 15 -387 46 -530 77 -199 43 -300 67 -370 88 -22 7 -67 21 -100 31 -58 17 -212 69 -360 122 -38 14 -92 35 -120 48 -111 52 -185 85 -191 85 -18 0 -357 180 -487 259 -65 39 -120 71 -122 71 -7 0 -299 200 -365 250 -36 27 -76 57 -90 67 -14 10 -85 66 -158 127 -435 357 -796 734 -1142 1196 -60 80 -117 156 -128 170 -70 93 -265 392 -341 523 -13 23 -36 60 -50 82 -14 22 -30 49 -36 60 -43 78 -99 180 -129 235 -42 76 -192 378 -231 465 -14 33 -37 83 -50 110 -25 55 -119 279 -140 335 -7 19 -27 69 -43 110 -17 41 -40 102 -51 135 -11 33 -36 105 -56 160 -20 55 -45 129 -56 165 -11 36 -33 110 -50 165 -31 99 -45 148 -75 255 -9 30 -22 76 -30 101 -8 26 -14 54 -14 64 0 10 -7 38 -15 64 -17 56 -38 139 -60 246 -9 44 -20 96 -25 115 -10 40 -43 212 -65 345 -9 50 -22 124 -30 165 -17 89 -36 236 -64 490 -6 58 -17 146 -22 195 -30 249 -51 931 -39 1263 15 394 27 639 33 649 3 5 10 71 16 146 6 75 15 165 20 199 6 35 17 117 26 183 28 210 81 518 119 690 8 33 22 96 31 140 9 44 28 125 42 180 14 55 29 116 33 135 4 19 15 60 23 90 8 30 25 91 37 135 12 44 26 94 30 110 4 17 12 41 17 55 6 14 18 52 28 85 10 33 35 112 57 175 22 63 43 129 48 145 10 35 37 112 49 140 5 11 15 38 24 60 21 55 76 193 93 233 8 18 14 37 14 42 0 10 29 75 91 207 16 35 29 65 29 68 0 14 203 426 256 520 19 33 45 83 59 110 14 28 30 57 35 65 5 8 57 96 116 195 59 99 139 227 178 285 39 58 75 113 81 122 16 28 69 102 83 117 7 7 30 39 52 70 86 122 103 145 206 273 92 114 216 261 234 278 3 3 51 55 105 115 161 177 438 445 580 560 27 22 65 54 85 71 19 17 73 59 120 94 47 36 90 68 95 73 94 79 489 340 575 380 8 4 29 16 45 26 111 71 574 295 685 331 14 5 50 18 80 30 65 25 242 84 320 107 30 8 64 19 75 23 20 7 116 31 265 66 36 8 91 22 122 30 32 8 72 14 88 14 17 0 61 6 98 14 152 32 370 51 727 64 22 1 139 -3 260 -8z"
       id="path4" />
    <path
       d="M6618 16654 c-10 -3 -20 -15 -23 -27 -3 -12 -4 -150 -3 -307 l3 -285 210 -8 c238 -9 255 -6 255 46 0 54 -9 57 -181 57 -134 0 -158 2 -163 16 -11 28 -6 140 6 152 8 8 57 12 155 12 79 0 144 3 144 8 6 41 6 60 0 71 -6 9 -51 15 -155 18 -138 6 -147 7 -151 27 -7 31 -1 94 11 106 5 5 79 11 164 12 l155 3 3 41 c2 31 -1 43 -13 48 -21 8 -395 17 -417 10z"
       id="path6" />
    <path
       d="M6070 16609 c-47 -3 -111 -12 -142 -18 -58 -12 -58 -13 -58 -49 0 -20 7 -82 15 -137 28 -189 45 -330 45 -371 0 -63 11 -67 137 -55 199 18 271 50 323 142 23 40 25 55 25 154 -1 127 -20 193 -72 255 -66 77 -115 91 -273 79z m127 -111 c35 -16 48 -31 73 -87 16 -34 20 -65 20 -142 l0 -98 -35 -34 c-32 -31 -43 -35 -110 -42 -41 -4 -78 -4 -83 -1 -8 4 -22 94 -50 311 -5 39 -6 74 -2 79 22 24 144 33 187 14z"
       id="path8" />
    <path
       d="M7528 16574 c-5 -4 -8 -17 -8 -28 0 -12 -6 -52 -14 -91 -8 -38 -22 -108 -31 -155 -17 -91 -41 -211 -54 -272 -9 -44 5 -62 57 -73 42 -9 60 6 67 54 3 20 12 68 20 106 7 39 21 108 30 155 9 47 23 113 31 147 16 71 18 139 5 147 -17 11 -96 18 -103 10z"
       id="path10" />
    <path
       d="M7852 16507 c-11 -13 -37 -88 -78 -227 -9 -30 -22 -73 -29 -95 -7 -22 -20 -67 -30 -100 -10 -33 -24 -77 -31 -98 -20 -54 -19 -56 32 -78 36 -16 48 -18 60 -9 8 7 14 18 14 24 0 7 13 54 30 106 16 52 37 120 46 150 20 62 31 80 38 59 19 -61 36 -126 51 -194 10 -44 24 -97 31 -118 8 -20 14 -48 14 -60 0 -35 40 -66 92 -73 l45 -6 23 73 c70 221 81 259 96 309 9 30 22 73 29 95 28 83 28 102 3 119 -27 19 -71 21 -86 3 -6 -6 -14 -26 -17 -42 -4 -17 -20 -69 -36 -117 -16 -48 -29 -96 -29 -106 0 -11 -9 -30 -20 -43 -17 -21 -21 -22 -30 -9 -5 8 -10 24 -10 34 0 11 -6 42 -14 70 -8 28 -22 80 -31 116 -9 36 -22 88 -30 115 -8 28 -16 56 -17 64 -2 7 -19 19 -38 26 -19 7 -42 15 -51 19 -9 4 -21 1 -27 -7z"
       id="path12" />
    <path
       d="M5145 16374 c-48 -12 -141 -46 -223 -80 -50 -20 -50 -15 -3 -142 17 -46 37 -102 45 -125 9 -23 29 -80 47 -127 17 -47 38 -106 46 -132 21 -68 34 -76 96 -54 182 63 232 87 278 135 61 64 77 129 59 227 -15 78 -57 176 -94 216 -60 64 -93 81 -164 84 -37 1 -76 1 -87 -2z m138 -148 c61 -63 105 -203 85 -270 -17 -55 -170 -138 -200 -108 -12 12 -31 60 -50 122 -5 19 -14 39 -19 45 -5 5 -9 17 -9 27 0 9 -7 33 -15 53 -8 19 -22 52 -31 72 -16 37 -15 38 11 60 14 13 36 23 48 23 12 0 29 5 37 10 8 5 34 10 58 10 37 0 48 -5 85 -44z"
       id="path14" />
    <path
       d="M8612 16198 c-140 -31 -252 -181 -252 -338 0 -173 131 -294 332 -307 113 -8 124 0 183 121 25 51 45 98 45 103 0 5 -49 33 -110 62 -118 58 -130 58 -151 3 -12 -31 9 -56 57 -72 58 -20 54 -82 -7 -95 -78 -17 -166 20 -209 90 -54 88 16 267 125 316 53 24 70 24 132 -6 58 -26 93 -71 93 -118 0 -30 24 -45 93 -54 l37 -6 0 44 c-1 123 -87 213 -245 255 -56 15 -63 16 -123 2z"
       id="path16" />
    <path
       d="M4415 16046 c-49 -28 -53 -50 -31 -191 8 -55 23 -152 31 -215 33 -231 38 -262 51 -267 15 -5 78 23 94 42 9 11 9 28 0 69 -6 31 -9 64 -6 74 4 11 30 31 59 46 28 15 70 38 92 51 22 13 46 24 54 25 7 0 36 -18 63 -40 28 -22 56 -40 63 -40 30 0 94 42 95 62 0 4 -75 69 -167 145 -91 76 -199 166 -239 201 -81 69 -98 73 -159 38z m173 -206 c39 -33 72 -66 75 -74 7 -17 -106 -81 -127 -73 -7 3 -16 31 -19 64 -4 32 -9 77 -13 101 -4 27 -3 42 4 42 6 0 42 -27 80 -60z"
       id="path18" />
    <path
       d="M9208 15868 c-19 -29 -94 -141 -166 -249 -74 -111 -130 -203 -127 -210 3 -8 38 -35 78 -61 40 -25 95 -62 122 -81 119 -81 161 -107 172 -107 16 0 56 58 50 74 -3 7 -62 50 -131 97 -84 56 -126 90 -126 102 0 24 68 127 83 127 7 0 61 -34 122 -75 60 -41 118 -75 127 -75 17 0 48 47 48 72 0 7 -34 35 -74 61 -120 78 -156 106 -156 124 0 9 16 35 36 59 l35 44 126 -85 c69 -47 133 -85 142 -85 20 0 55 55 48 74 -3 7 -45 39 -94 72 -48 32 -125 85 -171 116 -45 32 -89 58 -96 58 -7 0 -29 -24 -48 -52z"
       id="path20" />
    <path
       d="M3960 15764 c-69 -52 -149 -111 -178 -130 -29 -20 -56 -42 -59 -50 -7 -18 34 -74 54 -74 9 0 40 18 69 40 29 22 60 40 68 40 12 0 84 -88 136 -166 57 -86 156 -217 170 -224 22 -12 90 35 90 62 0 10 -28 56 -62 102 -35 46 -71 95 -80 108 -9 12 -41 57 -71 99 -30 42 -57 81 -60 87 -12 18 4 41 46 66 23 13 50 33 61 44 18 21 18 22 -4 57 -12 19 -29 35 -38 34 -9 0 -73 -43 -142 -95z"
       id="path22" />
    <path
       d="M6340 15603 c-58 -7 -130 -18 -160 -24 -30 -6 -86 -14 -123 -19 -38 -6 -87 -15 -110 -21 -23 -6 -69 -17 -102 -25 -133 -33 -272 -76 -382 -118 -24 -9 -62 -23 -85 -32 -24 -8 -56 -22 -71 -30 -16 -8 -33 -14 -38 -14 -21 0 -387 -185 -471 -238 -15 -9 -60 -37 -100 -61 -40 -25 -108 -70 -152 -100 -43 -31 -97 -69 -120 -85 -103 -72 -326 -257 -444 -371 -69 -65 -285 -283 -307 -309 -5 -6 -28 -32 -50 -57 -22 -25 -58 -67 -80 -94 -22 -27 -56 -67 -75 -90 -44 -52 -190 -240 -210 -271 -8 -12 -63 -94 -121 -181 -210 -313 -376 -606 -519 -918 -18 -38 -50 -107 -71 -153 -22 -45 -39 -86 -39 -91 0 -5 -6 -22 -14 -38 -20 -39 -83 -195 -106 -263 -5 -14 -18 -50 -30 -80 -23 -60 -141 -415 -164 -495 -8 -27 -22 -77 -31 -110 -9 -33 -22 -82 -30 -110 -8 -27 -22 -84 -31 -125 -9 -41 -22 -95 -29 -120 -7 -25 -20 -83 -30 -130 -9 -47 -23 -114 -30 -150 -63 -309 -105 -604 -145 -1020 -27 -274 -32 -1077 -9 -1380 6 -74 14 -185 19 -246 4 -60 13 -144 19 -185 5 -40 17 -128 26 -194 37 -277 112 -684 151 -817 8 -26 14 -55 14 -64 0 -9 6 -40 14 -68 8 -28 22 -80 31 -116 10 -36 23 -85 30 -110 8 -25 21 -72 31 -105 48 -170 136 -429 194 -575 12 -30 24 -64 27 -75 3 -11 11 -35 19 -52 28 -66 43 -100 79 -188 69 -167 271 -581 328 -672 13 -21 27 -45 30 -53 8 -17 23 -42 105 -178 32 -51 62 -101 67 -110 12 -20 154 -232 213 -317 47 -68 199 -262 270 -345 226 -264 419 -457 673 -674 100 -85 394 -301 444 -326 6 -3 37 -23 70 -45 33 -21 80 -50 104 -63 24 -13 58 -32 75 -43 17 -10 99 -52 181 -92 140 -70 202 -97 300 -134 22 -8 54 -20 70 -27 40 -17 94 -36 130 -46 17 -5 71 -20 120 -35 204 -60 267 -74 425 -100 254 -40 318 -45 580 -45 266 0 437 13 595 46 39 8 83 14 99 14 16 0 52 6 80 14 28 8 80 22 116 31 111 28 332 96 400 123 14 6 50 20 80 32 89 34 92 36 160 67 188 88 350 173 440 233 31 20 62 39 70 44 91 44 419 290 585 436 43 38 227 213 290 276 22 22 78 82 125 133 47 52 92 101 100 110 23 23 150 182 254 314 47 61 228 325 283 413 49 77 141 232 147 244 3 8 15 29 25 45 52 81 177 319 251 480 18 39 50 107 71 153 22 45 39 87 39 93 0 6 6 23 14 37 18 35 71 167 122 305 30 81 47 123 60 155 8 18 14 39 14 47 0 8 6 29 14 47 15 36 63 176 76 223 21 78 53 195 67 240 8 28 18 68 23 90 18 77 37 160 48 200 6 22 18 73 26 113 62 287 68 320 121 667 21 136 37 269 45 380 4 55 13 147 19 205 32 306 30 1175 -4 1457 -8 68 -15 144 -15 170 0 27 -7 98 -15 158 -9 61 -22 160 -31 220 -29 208 -58 380 -89 520 -7 33 -21 96 -30 140 -16 82 -35 161 -61 251 -8 28 -14 59 -14 70 0 10 -6 36 -14 59 -7 22 -21 67 -30 100 -51 178 -105 354 -122 393 -8 18 -14 41 -14 52 0 10 -4 21 -9 25 -5 3 -13 20 -17 38 -3 17 -12 45 -19 62 -7 16 -20 48 -28 70 -88 236 -177 444 -298 690 -59 121 -160 313 -183 350 -7 11 -28 47 -46 80 -18 33 -46 79 -61 103 -16 24 -29 45 -29 47 0 2 -13 24 -30 48 -16 25 -30 47 -30 50 0 6 -44 71 -149 222 -301 434 -721 884 -1096 1175 -38 30 -81 65 -95 77 -14 13 -28 23 -32 23 -4 0 -43 26 -87 59 -184 136 -453 288 -711 402 -89 40 -106 47 -150 64 -25 9 -56 22 -70 27 -152 60 -472 147 -615 168 -33 5 -85 13 -115 19 -234 43 -679 55 -910 24z m780 -119 c69 -9 155 -22 192 -30 37 -8 78 -14 92 -14 14 0 45 -6 68 -13 24 -8 77 -22 118 -31 73 -18 227 -64 303 -92 96 -36 115 -43 157 -59 86 -34 335 -153 410 -197 19 -11 55 -31 80 -45 124 -67 368 -232 500 -338 219 -176 292 -242 482 -435 352 -357 692 -813 943 -1264 15 -28 40 -70 54 -95 63 -110 301 -609 301 -632 0 -6 6 -23 14 -37 20 -38 81 -190 106 -262 5 -14 18 -50 30 -80 27 -73 80 -230 119 -360 17 -58 38 -125 45 -150 8 -25 21 -74 31 -110 9 -36 22 -78 27 -95 6 -16 14 -48 18 -70 4 -22 13 -62 20 -90 44 -180 68 -297 114 -555 54 -300 98 -702 117 -1055 12 -228 7 -868 -10 -1120 -11 -183 -44 -483 -72 -670 -6 -38 -15 -97 -19 -130 -5 -33 -14 -87 -20 -120 -7 -33 -19 -94 -26 -135 -35 -179 -74 -357 -90 -409 -8 -25 -14 -53 -14 -64 0 -11 -6 -40 -14 -66 -8 -25 -22 -73 -31 -106 -56 -203 -147 -491 -195 -615 -12 -30 -25 -66 -30 -80 -5 -14 -18 -50 -30 -80 -12 -30 -25 -67 -30 -81 -4 -14 -12 -34 -18 -45 -6 -10 -20 -44 -32 -74 -12 -30 -33 -80 -47 -110 -14 -30 -37 -82 -51 -115 -78 -173 -281 -559 -371 -705 -6 -8 -33 -53 -62 -100 -95 -153 -267 -397 -366 -520 -55 -68 -88 -109 -106 -130 -12 -13 -32 -37 -43 -53 -40 -52 -188 -212 -298 -321 -475 -472 -994 -813 -1541 -1014 -112 -41 -145 -52 -180 -62 -16 -5 -61 -18 -100 -30 -38 -11 -88 -24 -110 -29 -22 -5 -60 -13 -85 -19 -48 -12 -163 -34 -270 -52 -36 -6 -165 -16 -287 -22 -312 -16 -618 2 -820 48 -34 8 -73 14 -87 14 -14 0 -45 6 -68 13 -24 8 -77 22 -118 31 -41 10 -91 24 -110 31 -19 7 -62 21 -95 30 -33 10 -94 31 -135 47 -41 17 -93 37 -115 46 -220 85 -604 294 -765 417 -30 23 -86 63 -123 89 -70 47 -87 61 -281 226 -452 384 -907 953 -1236 1545 -19 33 -44 78 -56 100 -26 46 -177 351 -204 410 -10 22 -29 65 -43 95 -14 30 -46 107 -72 170 -26 63 -51 123 -56 132 -5 10 -18 46 -30 80 -11 35 -24 72 -29 83 -21 45 -129 372 -155 465 -9 36 -23 83 -30 105 -7 22 -20 69 -30 105 -9 36 -23 85 -31 110 -8 25 -14 52 -14 61 0 9 -6 39 -14 65 -8 27 -22 85 -31 129 -9 44 -22 109 -30 145 -68 329 -103 569 -150 1025 -38 378 -38 1242 0 1546 8 63 15 135 15 160 0 62 45 398 72 539 6 30 12 71 14 90 5 39 29 164 49 255 7 33 21 98 30 145 10 47 23 105 31 129 8 25 14 52 14 62 0 9 6 39 14 65 8 27 22 78 31 114 10 36 23 83 30 105 7 22 20 67 29 100 28 97 47 158 61 195 7 19 22 64 34 100 11 36 30 90 41 120 12 30 25 66 30 80 5 14 18 50 30 80 12 30 25 67 30 81 4 14 12 34 18 45 6 10 33 73 61 139 72 171 138 316 150 328 6 6 11 15 11 20 0 16 157 318 210 402 10 17 28 48 40 70 12 22 34 58 49 80 15 22 30 47 34 55 20 41 228 346 282 415 22 27 56 72 75 98 45 62 155 199 185 231 6 6 47 52 92 101 114 128 294 308 387 388 43 37 84 73 91 80 73 70 517 397 540 397 2 0 23 13 47 29 100 67 432 235 563 284 22 9 75 29 119 46 43 17 85 31 92 31 7 0 28 6 46 14 39 16 107 37 198 61 36 9 88 23 116 31 28 8 63 14 78 14 16 0 58 6 95 14 248 54 696 68 1001 30z"
       id="path24" />
    <path
       d="M7490 15036 c-14 -8 -43 -21 -65 -29 -22 -8 -77 -30 -122 -49 l-83 -33 0 -47 c0 -63 20 -75 93 -54 28 8 93 23 142 34 l90 19 0 84 c0 92 -7 101 -55 75z"
       id="path26" />
    <path
       d="M7094 14872 c-66 -44 -78 -52 -99 -61 -11 -5 -37 -21 -58 -35 -21 -14 -40 -26 -43 -26 -2 0 -23 -12 -47 -27 -53 -35 -67 -43 -116 -70 -22 -12 -60 -35 -83 -50 -60 -38 -81 -51 -98 -59 -8 -4 -33 -19 -55 -33 -22 -14 -55 -34 -74 -44 -19 -10 -52 -31 -75 -45 -23 -14 -57 -35 -76 -45 -65 -35 -71 -45 -64 -101 4 -28 8 -52 9 -54 2 -2 18 6 36 17 19 12 43 25 54 31 11 6 34 19 50 30 17 11 39 24 50 30 11 6 34 19 50 30 17 11 39 24 50 30 11 6 34 19 50 30 17 11 39 24 50 30 11 6 34 19 50 30 17 11 39 24 50 30 11 6 34 19 50 30 17 11 39 24 50 30 11 6 34 19 50 30 17 11 37 23 45 27 8 3 33 18 55 32 22 14 56 34 75 44 19 11 53 31 75 46 22 15 48 30 57 34 38 14 31 110 -8 114 -10 2 -37 -10 -60 -25z"
       id="path28" />
    <path
       d="M6439 14821 c-52 -18 -89 -58 -254 -271 -33 -42 -79 -101 -102 -129 -24 -29 -43 -58 -43 -65 0 -8 21 -11 72 -10 56 2 75 6 85 20 8 10 47 61 88 114 138 175 265 344 265 352 0 13 -61 7 -111 -11z"
       id="path30" />
    <path
       d="M5950 14281 c-177 -69 -319 -187 -364 -300 -17 -43 -17 -45 2 -70 16 -22 28 -26 76 -29 37 -2 68 2 88 12 17 9 39 16 49 16 10 0 20 4 23 9 3 5 25 19 48 31 104 54 219 170 245 246 12 36 -4 87 -32 98 -29 11 -88 5 -135 -13z"
       id="path32" />
    <path
       d="M6285 14149 c-12 -18 5 -58 50 -122 24 -34 69 -96 98 -137 30 -41 67 -94 82 -117 15 -24 31 -40 36 -37 23 14 3 62 -72 171 -44 65 -101 148 -126 186 -46 67 -56 76 -68 56z"
       id="path34" />
    <path
       d="M6085 14060 c-16 -18 -62 -54 -102 -82 -80 -56 -80 -51 -20 -129 15 -20 27 -40 27 -43 0 -3 6 -14 14 -23 26 -32 160 -216 200 -275 70 -104 70 -104 154 -28 27 25 81 71 121 104 39 32 71 63 71 68 0 12 -61 102 -72 106 -4 2 -8 8 -8 12 0 5 -33 53 -73 107 -41 54 -86 117 -101 140 -29 44 -57 59 -134 69 -43 5 -49 3 -77 -26z"
       id="path36" />
    <path
       d="M5480 13901 c-19 -10 -102 -59 -185 -108 -82 -49 -157 -92 -165 -96 -8 -4 -28 -16 -45 -27 -16 -11 -37 -23 -45 -27 -43 -21 -268 -158 -287 -176 -13 -11 -23 -28 -23 -37 0 -9 -7 -25 -15 -36 -16 -21 -20 -74 -6 -74 5 0 193 111 417 246 388 234 444 266 444 249 0 -3 -89 -117 -197 -252 -356 -441 -365 -453 -330 -453 8 0 38 4 68 9 30 6 101 15 159 22 100 11 107 13 137 46 18 18 38 44 45 58 7 13 66 103 131 200 83 123 124 175 135 173 16 -3 30 -20 163 -195 39 -50 76 -94 84 -97 14 -5 54 6 113 30 18 8 41 14 51 14 19 0 81 23 93 35 6 6 -56 104 -113 176 -16 20 -29 40 -29 44 0 3 -20 33 -45 65 -25 32 -45 62 -45 65 0 4 -13 24 -30 45 -16 21 -30 43 -30 49 0 6 -11 11 -25 11 -18 0 -25 5 -25 20 0 26 -8 25 -74 -4 -30 -14 -81 -27 -113 -31 -32 -3 -72 -8 -89 -11 -28 -4 -32 0 -53 41 -12 25 -26 45 -29 45 -4 0 -23 -8 -42 -19z"
       id="path38" />
    <path
       d="M6600 13665 c0 -30 20 -77 37 -88 7 -4 13 -13 13 -19 0 -5 14 -30 30 -55 17 -24 30 -46 30 -49 0 -2 14 -23 30 -46 17 -22 30 -46 30 -52 0 -6 11 -16 25 -23 23 -10 25 -9 25 10 -1 27 -16 55 -104 199 -94 154 -116 177 -116 123z"
       id="path40" />
    <path
       d="M6450 13489 c-63 -55 -116 -107 -118 -115 -2 -8 14 -38 35 -67 21 -29 56 -79 78 -112 22 -33 46 -66 53 -73 7 -8 19 -26 27 -42 22 -42 44 -45 79 -12 78 73 104 95 149 129 26 21 47 45 47 54 0 20 -31 82 -43 88 -5 2 -13 13 -18 25 -5 11 -18 35 -29 51 -11 17 -23 37 -27 45 -3 8 -19 31 -35 51 -15 20 -28 44 -28 52 0 12 -27 27 -50 27 -3 0 -57 -45 -120 -101z"
       id="path42" />
    <path
       d="M4572 13319 c-79 -77 -83 -84 -99 -150 -26 -106 -9 -106 76 1 40 50 79 106 86 125 8 18 19 36 25 40 11 7 14 65 3 65 -5 0 -45 -37 -91 -81z"
       id="path44" />
    <path
       d="M6175 13323 c-140 -41 -160 -48 -159 -64 2 -20 212 -299 232 -307 8 -3 38 0 66 7 28 6 72 16 98 21 57 11 88 26 88 44 0 8 -39 68 -87 133 -47 65 -97 133 -110 151 -27 36 -48 39 -128 15z"
       id="path46" />
    <path
       d="M6770 13144 c0 -8 20 -42 45 -74 25 -32 45 -62 45 -67 0 -12 60 -73 71 -73 23 0 16 26 -23 77 -24 32 -52 71 -62 86 -39 63 -76 88 -76 51z"
       id="path48" />
    <path
       d="M5195 13084 c-38 -7 -91 -13 -117 -13 -74 -1 -93 -15 -133 -100 -20 -42 -45 -92 -56 -112 -34 -66 -30 -70 64 -63 45 3 124 12 174 20 51 8 108 14 128 14 23 0 37 6 44 18 14 27 53 170 59 215 l4 37 -48 -1 c-27 -1 -80 -7 -119 -15z"
       id="path50" />
    <path
       d="M6662 13058 c-7 -7 -12 -25 -12 -40 0 -54 82 -57 88 -4 2 15 -2 34 -9 42 -14 17 -51 18 -67 2z"
       id="path52" />
    <path
       d="M6541 12986 l-24 -25 26 -6 c46 -12 72 -3 72 25 0 36 -43 39 -74 6z"
       id="path54" />
    <path
       d="M6420 12933 c0 -3 11 -21 25 -39 14 -18 25 -36 25 -39 0 -4 20 -33 45 -65 50 -65 57 -95 23 -105 -72 -20 -167 -65 -197 -92 -19 -18 -20 -23 -7 -23 9 0 16 5 16 10 0 6 11 10 24 10 13 0 37 6 53 14 43 22 101 42 173 61 36 9 79 20 95 25 61 19 222 32 305 26 140 -11 336 -75 455 -149 124 -77 360 -316 513 -519 73 -97 73 -99 -23 -102 -44 -2 -96 -10 -116 -18 -39 -17 -129 -103 -129 -123 0 -18 -32 -37 -146 -85 -54 -23 -124 -54 -154 -68 -30 -14 -82 -37 -115 -53 -195 -89 -550 -270 -645 -328 -19 -11 -42 -24 -50 -28 -29 -13 -295 -175 -365 -221 -104 -70 -114 -73 -198 -62 -40 6 -174 13 -300 17 -149 4 -230 10 -237 17 -6 8 0 36 16 81 14 39 29 84 34 100 5 17 26 82 48 145 22 63 48 143 58 178 18 60 22 64 99 119 194 137 279 258 245 348 -33 87 -161 165 -272 165 -69 0 -195 -35 -287 -80 -55 -27 -142 -113 -170 -168 -24 -48 -28 -158 -8 -206 11 -26 10 -38 -11 -95 -13 -37 -28 -79 -32 -96 -5 -16 -19 -61 -33 -100 -13 -38 -32 -97 -42 -130 -10 -33 -23 -76 -30 -95 -7 -19 -20 -64 -30 -100 -30 -118 -26 -115 -230 -157 -27 -6 -77 -18 -110 -28 -33 -9 -73 -21 -90 -25 -16 -5 -55 -18 -85 -30 -96 -37 -134 -51 -165 -61 -16 -5 -82 -35 -145 -66 -381 -191 -613 -456 -727 -828 -39 -128 -53 -237 -53 -406 0 -160 0 -160 52 -329 24 -80 134 -302 173 -350 6 -8 15 -22 19 -30 10 -23 24 -44 117 -185 73 -109 136 -192 227 -297 13 -16 13 -25 -2 -85 -9 -38 -21 -81 -26 -98 -41 -130 -71 -411 -57 -533 15 -137 47 -241 119 -387 86 -175 135 -243 270 -377 197 -195 413 -305 713 -362 95 -18 325 -39 448 -41 48 -1 91 -6 95 -11 5 -5 26 -31 47 -59 207 -262 406 -383 754 -461 117 -26 420 -23 526 5 289 77 482 192 740 443 l134 129 43 -6 c49 -7 326 -35 408 -42 38 -3 63 -12 80 -27 62 -56 100 -70 184 -69 72 0 88 4 144 33 76 40 207 168 247 241 43 80 56 152 41 225 -44 211 -200 220 -506 28 -34 -21 -63 -33 -75 -29 -11 3 -72 10 -135 16 -63 6 -119 14 -123 18 -8 8 11 48 53 116 10 17 31 52 45 79 15 27 31 57 36 65 33 60 129 271 129 284 0 9 4 18 10 22 5 3 14 20 19 38 5 18 19 57 31 87 12 30 39 109 61 174 22 66 46 127 52 137 7 9 64 72 127 139 62 66 123 133 134 149 12 15 38 45 58 67 20 21 48 53 63 69 27 31 280 344 327 405 41 52 213 310 231 346 23 45 42 48 69 14 63 -80 152 -210 171 -251 4 -8 16 -27 26 -44 30 -46 102 -194 161 -330 75 -172 129 -368 130 -472 0 -37 9 -40 45 -17 24 16 25 21 25 120 0 106 -5 131 -60 274 -12 30 -25 67 -29 81 -18 54 -144 316 -198 407 -24 41 -43 76 -43 79 0 3 -13 22 -30 43 -16 21 -30 41 -30 44 0 7 -18 34 -92 137 -27 37 -48 71 -48 78 0 6 15 43 34 83 81 173 136 323 181 488 10 36 24 84 31 108 8 23 14 50 14 59 0 9 6 44 14 77 40 176 81 602 66 688 -22 125 -49 203 -116 334 -87 171 -200 301 -378 434 -81 61 -121 86 -201 127 -11 6 -34 18 -52 27 -17 9 -43 16 -56 16 -14 0 -29 5 -32 10 -3 6 -14 10 -23 10 -14 -1 -14 -2 3 -12 11 -7 26 -18 33 -25 7 -7 21 -13 29 -13 9 0 24 -6 32 -14 9 -7 43 -28 76 -46 33 -18 78 -45 100 -59 22 -15 47 -30 55 -34 59 -27 236 -206 275 -277 113 -210 143 -304 151 -470 9 -187 -22 -564 -54 -665 -5 -16 -17 -66 -27 -110 -16 -77 -31 -121 -61 -193 -8 -18 -14 -39 -14 -46 0 -33 -156 -352 -176 -360 -7 -3 -83 65 -176 157 -167 166 -321 296 -465 393 -49 34 -85 66 -92 82 -6 15 -15 74 -21 132 -23 241 -100 711 -136 834 -8 26 -14 54 -14 62 0 7 -7 35 -15 61 -8 26 -22 73 -31 103 -9 30 -23 73 -31 95 -37 98 -46 122 -60 155 -9 19 -22 48 -29 63 -9 18 -14 62 -14 118 0 122 -31 179 -151 275 -39 31 -87 82 -111 117 -114 170 -226 305 -392 475 -179 184 -232 218 -441 285 -178 58 -322 67 -560 38 -38 -4 -86 -13 -105 -20 -43 -14 -70 -6 -70 20 0 28 -131 199 -152 199 -10 0 -18 -3 -18 -7z m-756 -969 c13 -33 5 -56 -35 -99 -58 -63 -121 -97 -183 -99 -26 -1 -42 4 -49 16 -23 35 94 158 175 184 50 17 85 16 92 -2z m2446 -174 c38 -20 75 -72 66 -95 -13 -36 -166 -25 -249 18 -68 35 -73 90 -9 100 49 8 156 -5 192 -23z m-60 -405 c83 -18 137 -25 194 -23 l79 3 14 -45 c8 -25 19 -61 23 -80 5 -19 18 -69 30 -110 22 -80 27 -103 60 -250 27 -120 48 -228 60 -306 5 -34 12 -67 14 -75 9 -23 37 -217 46 -309 4 -47 11 -97 15 -112 6 -24 4 -28 -15 -28 -12 0 -36 10 -53 23 -17 12 -39 27 -49 32 -10 6 -82 49 -160 97 -79 47 -163 97 -188 111 -25 13 -72 39 -105 57 -117 65 -417 210 -434 210 -5 0 -24 8 -43 17 -65 32 -72 36 -97 43 -14 5 -51 18 -81 30 -30 12 -68 25 -85 30 -29 8 -56 17 -135 45 -32 12 -60 20 -220 62 -111 30 -131 37 -141 49 -9 11 -5 16 15 24 15 5 54 28 87 50 33 22 62 40 65 40 2 0 21 11 42 23 92 58 303 166 402 207 30 12 78 33 107 46 28 13 54 24 57 24 3 0 41 16 83 36 43 20 103 47 133 61 30 13 66 31 80 39 28 16 42 15 200 -21z m-2228 -601 c33 -6 36 -8 27 -28 -6 -12 -27 -32 -47 -46 -20 -13 -133 -120 -250 -237 -118 -117 -218 -210 -223 -207 -10 6 -5 54 16 154 7 36 21 108 30 160 15 84 40 181 52 203 5 8 342 9 395 1z m-846 -48 c6 -15 -2 -57 -36 -196 -11 -47 -24 -110 -29 -140 -16 -94 -41 -224 -47 -240 -8 -20 -32 -193 -44 -310 -5 -52 -13 -131 -18 -175 -10 -86 -6 -78 -144 -269 -183 -251 -375 -582 -481 -828 -9 -21 -21 -38 -27 -38 -15 0 -122 116 -193 211 -190 252 -327 578 -327 778 0 109 56 364 99 449 5 9 19 40 31 67 69 153 173 267 335 365 79 49 317 170 333 170 6 0 23 6 39 14 56 28 104 46 121 46 10 0 22 4 28 9 5 6 27 14 49 20 22 5 78 21 125 34 84 24 158 43 173 46 4 0 10 -5 13 -13z m1664 -51 c41 -9 109 -23 150 -31 41 -9 97 -22 124 -30 26 -8 57 -14 67 -14 10 0 33 -6 51 -14 18 -8 78 -28 133 -45 55 -17 117 -38 138 -46 152 -60 207 -83 229 -95 10 -6 22 -10 27 -10 17 0 313 -141 426 -203 168 -93 205 -114 263 -149 34 -21 64 -38 67 -38 2 0 23 -13 47 -28 192 -125 237 -158 242 -178 24 -94 33 -496 16 -694 -5 -58 -14 -161 -19 -229 -6 -68 -16 -151 -22 -185 -22 -123 -41 -222 -54 -271 -7 -27 -21 -79 -30 -115 -22 -85 -95 -327 -122 -406 -8 -22 -25 -52 -37 -65 -77 -81 -400 -351 -494 -414 -20 -13 -57 -39 -82 -56 -129 -92 -351 -212 -642 -348 -50 -24 -68 -23 -158 4 -25 7 -70 21 -100 29 -30 9 -95 29 -145 45 -49 15 -124 39 -165 51 -41 13 -79 26 -85 30 -5 4 -21 10 -35 13 -24 5 -55 15 -130 43 -19 7 -75 27 -125 44 -101 35 -185 68 -268 104 -21 9 -42 16 -48 16 -11 0 -99 41 -274 127 -190 94 -229 117 -242 144 -14 29 -34 126 -62 304 -7 39 -17 93 -22 120 -64 301 -81 908 -39 1320 5 50 12 121 16 159 l7 68 99 105 c150 158 348 334 543 483 39 30 87 67 106 82 19 15 52 41 74 58 42 33 262 193 305 222 14 10 54 38 90 63 36 25 74 45 85 45 11 0 54 -7 95 -15z m2200 -1022 c14 -9 27 -19 30 -23 3 -3 30 -23 60 -45 50 -35 101 -75 279 -218 108 -88 201 -179 207 -203 5 -18 -13 -51 -73 -141 -67 -101 -344 -478 -362 -493 -3 -3 -31 -36 -62 -75 -31 -38 -65 -79 -75 -90 -11 -11 -40 -45 -66 -75 -84 -98 -95 -110 -108 -110 -13 0 -12 9 13 115 8 33 20 80 26 105 5 25 17 90 26 145 8 55 22 138 30 185 24 142 39 490 31 725 -7 232 -7 233 44 198z m-4029 -595 c0 -2 4 -52 8 -113 14 -188 31 -347 46 -420 7 -38 16 -95 20 -125 10 -92 48 -300 71 -392 17 -72 18 -118 1 -118 -7 0 -116 78 -242 173 -288 215 -340 257 -355 283 -12 22 -11 25 75 179 33 59 287 444 328 498 24 31 45 46 48 35z m-468 -1070 c45 -39 84 -74 87 -78 23 -28 318 -251 566 -428 66 -47 105 -82 112 -100 5 -15 27 -80 48 -145 20 -65 41 -120 46 -123 4 -3 8 -13 8 -23 0 -43 112 -272 204 -417 31 -48 56 -94 56 -102 0 -16 -80 -14 -285 7 -169 17 -358 63 -475 116 -135 61 -304 226 -407 400 -43 72 -104 211 -119 270 -33 126 -20 431 25 605 5 19 12 47 15 63 4 15 13 27 22 27 8 0 52 -32 97 -72z m3878 -541 c-6 -6 -11 -17 -11 -25 0 -15 -13 -45 -61 -149 -16 -35 -29 -65 -29 -69 0 -3 -15 -36 -34 -72 -112 -222 -161 -300 -191 -308 -11 -3 -41 -1 -65 5 -25 5 -76 12 -115 16 -38 4 -95 13 -125 20 -30 7 -77 16 -104 20 -56 8 -98 24 -93 38 1 5 27 22 57 39 181 100 495 305 570 372 14 12 43 34 65 49 22 15 63 48 90 73 46 43 50 44 53 24 2 -12 -1 -27 -7 -33z m-2678 -310 c37 -20 78 -44 142 -84 11 -7 70 -38 130 -68 61 -31 117 -60 125 -65 38 -22 214 -101 300 -134 135 -52 164 -66 154 -75 -11 -10 -80 -33 -159 -55 -33 -9 -82 -23 -110 -31 -27 -8 -70 -17 -95 -20 -25 -4 -58 -10 -75 -15 -16 -5 -76 -11 -132 -15 l-102 -7 -24 39 c-57 90 -143 276 -172 368 -10 33 -22 69 -27 80 -16 36 -27 88 -22 96 8 14 21 11 67 -14z m1317 -542 c30 -7 78 -18 105 -25 120 -29 183 -43 230 -50 117 -19 194 -33 252 -46 34 -8 76 -14 92 -14 16 0 33 -5 37 -12 10 -16 -136 -155 -256 -244 -244 -181 -357 -223 -605 -224 -147 0 -203 7 -360 47 -117 29 -198 72 -297 154 -99 83 -202 194 -193 208 2 5 28 11 57 15 29 3 73 11 98 16 25 5 81 16 125 25 44 9 100 22 125 29 25 8 74 22 110 31 71 20 129 38 260 85 90 32 108 32 220 5z m1920 -4 c5 -11 7 -28 4 -38 -8 -22 -75 -93 -88 -93 -5 0 -17 -6 -25 -13 -25 -21 -93 -39 -131 -35 -33 3 -35 5 -33 38 2 43 47 85 136 130 71 35 121 39 137 11z"
       id="path56" />
    <path
       d="M6262 10248 c-9 -9 -12 -83 -12 -270 l0 -258 23 -5 c12 -3 69 -6 127 -8 l105 -2 3 -229 c2 -160 -1 -233 -9 -242 -15 -19 -464 -21 -475 -2 -4 6 -6 58 -5 115 2 69 -2 109 -10 119 -9 11 -58 14 -269 14 -226 0 -259 -2 -264 -16 -3 -9 -6 -273 -6 -588 0 -432 3 -575 12 -584 9 -9 80 -12 259 -12 216 0 250 2 264 16 13 14 16 36 14 126 -2 86 1 112 12 119 22 14 453 11 467 -3 18 -18 17 -461 -1 -476 -7 -6 -64 -13 -128 -14 l-114 -3 0 -265 0 -265 584 -3 c461 -2 586 0 593 10 11 18 10 499 -1 517 -7 10 -34 13 -116 12 -69 -1 -112 2 -121 10 -19 15 -21 458 -2 477 13 13 431 18 462 6 13 -5 16 -26 16 -123 0 -78 4 -121 12 -129 9 -9 81 -12 265 -12 239 0 253 1 263 19 11 21 15 1137 4 1165 -5 14 -39 16 -270 16 l-264 0 -5 -22 c-3 -13 -6 -70 -8 -128 l-2 -105 -240 0 -240 0 0 240 0 240 114 3 c64 1 121 8 128 14 18 15 19 508 1 526 -17 17 -1149 17 -1166 0z"
       id="path58" />
    <path
       d="M2850 9168 c-61 -83 -160 -229 -192 -286 -27 -49 -32 -67 -32 -129 -1 -83 12 -104 92 -143 58 -29 128 -75 164 -108 15 -14 31 -22 35 -19 11 12 -18 138 -49 205 -35 79 -35 97 0 164 25 50 27 62 30 206 2 92 0 152 -6 152 -5 0 -24 -19 -42 -42z"
       id="path60" />
    <path
       d="M10580 9195 c-9 -11 -11 -52 -8 -153 4 -124 7 -142 31 -189 33 -64 34 -90 3 -156 -45 -98 -68 -198 -48 -211 5 -3 19 5 33 17 33 31 127 97 137 97 21 0 87 43 104 67 25 39 24 118 -3 179 -24 53 -109 186 -176 276 -24 31 -43 61 -43 67 0 18 -17 21 -30 6z"
       id="path62" />
    <path
       d="M2990 9100 c0 -22 7 -73 16 -114 l17 -75 -33 -81 c-34 -87 -34 -87 -2 -206 21 -77 28 -94 42 -94 8 0 81 143 114 224 26 63 20 109 -28 206 -9 19 -23 44 -29 55 -55 89 -80 125 -88 125 -5 0 -9 -18 -9 -40z"
       id="path64" />
    <path
       d="M10421 9075 c-59 -90 -111 -207 -111 -249 0 -39 10 -65 79 -205 26 -51 51 -93 56 -93 5 1 22 47 38 104 l29 103 -23 60 c-29 79 -35 175 -15 252 30 116 11 125 -53 28z"
       id="path66" />
    <path
       d="M10933 8427 c-13 -5 -23 -14 -23 -18 0 -10 -87 -51 -145 -69 -127 -40 -139 -48 -163 -103 -13 -28 -30 -67 -37 -85 -8 -18 -15 -39 -15 -46 0 -18 -37 -49 -49 -41 -6 3 -11 14 -11 23 0 18 -27 98 -54 164 -9 20 -33 50 -53 67 -76 62 -147 110 -154 106 -17 -11 -39 -104 -39 -166 0 -53 5 -76 25 -112 28 -49 62 -77 95 -77 20 0 19 1 -5 41 -34 52 -33 122 2 127 14 2 23 -3 28 -17 3 -12 35 -60 70 -109 36 -48 71 -96 78 -107 14 -19 15 -18 71 15 31 19 67 46 80 60 28 30 90 143 100 183 4 18 13 27 26 27 44 0 31 -83 -33 -203 -16 -31 -27 -60 -24 -64 9 -8 90 24 120 47 25 20 74 127 100 220 27 95 38 142 35 145 -2 1 -13 -2 -25 -8z"
       id="path68" />
    <path
       d="M2515 8420 c-4 -6 0 -29 8 -53 8 -23 22 -69 32 -102 30 -106 76 -186 120 -210 45 -25 95 -39 95 -28 0 5 -18 44 -40 88 -30 60 -40 92 -40 127 0 74 23 62 71 -38 23 -48 55 -102 71 -120 34 -39 133 -98 148 -89 6 3 17 21 26 38 9 18 38 58 64 89 27 32 54 71 62 88 9 22 19 30 33 28 37 -5 29 -101 -12 -150 -25 -28 5 -32 46 -5 42 28 91 118 91 165 -1 42 -36 176 -47 179 -6 2 -23 -7 -39 -21 -16 -14 -51 -40 -79 -59 -63 -42 -95 -91 -126 -190 -13 -43 -31 -85 -40 -93 -14 -13 -20 -3 -58 95 -24 60 -50 116 -59 124 -17 15 -58 32 -137 57 -58 18 -126 51 -147 72 -20 20 -34 23 -43 8z"
       id="path70" />
    <path
       d="M3285 7762 c-93 -89 -106 -114 -131 -262 -9 -58 -20 -109 -24 -113 -4 -4 -24 21 -45 55 -78 128 -105 165 -131 177 -15 6 -68 16 -118 21 -89 9 -150 25 -177 46 -25 19 -50 24 -55 11 -2 -7 25 -72 61 -145 81 -161 117 -200 208 -226 36 -10 70 -15 76 -11 7 4 -6 26 -33 58 -55 62 -108 160 -104 190 4 28 37 29 52 2 22 -40 99 -141 125 -163 27 -24 42 -32 123 -62 54 -20 58 -18 79 45 7 22 23 56 35 75 21 35 54 106 70 148 8 21 10 21 32 7 17 -13 22 -26 22 -61 0 -25 -7 -58 -15 -75 -23 -43 -9 -53 31 -23 43 33 74 102 74 164 0 41 -48 189 -69 212 -3 3 -42 -28 -86 -70z"
       id="path72" />
    <path
       d="M10101 7826 c-5 -6 -22 -38 -37 -71 -55 -120 -30 -269 52 -309 l37 -17 -7 23 c-24 76 -28 101 -22 133 9 44 41 49 57 8 16 -41 41 -92 69 -143 14 -25 30 -61 36 -80 9 -32 13 -35 45 -33 88 5 172 68 249 187 44 68 72 82 78 39 5 -32 -43 -123 -95 -183 -58 -65 -49 -79 33 -54 69 21 96 40 132 91 48 67 142 255 142 281 0 12 -39 4 -59 -12 -26 -20 -87 -36 -179 -46 -51 -5 -104 -16 -117 -22 -20 -11 -85 -89 -85 -102 0 -3 -12 -22 -26 -43 -14 -21 -30 -48 -35 -61 -5 -13 -15 -22 -22 -20 -16 6 -35 80 -36 140 -2 82 -32 138 -121 226 -54 54 -83 75 -89 68z"
       id="path74" />
    <path
       d="M9984 7483 c-3 -10 -9 -25 -14 -33 -5 -8 -19 -35 -31 -60 -33 -66 -159 -228 -255 -327 -46 -48 -84 -92 -83 -97 0 -6 3 -5 6 2 2 6 11 12 19 12 30 0 294 284 294 315 0 4 14 24 30 45 17 21 30 43 30 49 0 6 9 25 20 43 24 39 26 68 5 68 -9 0 -18 -8 -21 -17z"
       id="path76" />
    <path
       d="M3346 7175 c-88 -90 -102 -118 -116 -245 -6 -47 -12 -91 -15 -97 -7 -21 -35 -15 -44 10 -5 12 -21 39 -35 60 -14 21 -26 41 -26 45 0 4 -17 26 -38 50 -32 38 -45 45 -102 57 -36 8 -84 14 -107 15 -45 0 -117 24 -144 47 -15 13 -49 18 -49 7 0 -5 25 -60 70 -154 36 -77 74 -137 103 -168 40 -41 177 -81 177 -51 0 6 -20 34 -45 62 -25 29 -55 71 -66 94 -39 81 -4 140 39 66 50 -88 112 -153 170 -180 31 -14 65 -30 74 -34 42 -21 68 -5 68 39 0 9 20 52 44 94 24 43 47 91 51 107 7 33 29 56 44 46 29 -17 28 -125 -1 -162 -13 -17 8 -26 31 -14 32 18 59 59 76 118 18 63 13 99 -31 198 -35 81 -39 81 -128 -10z"
       id="path78" />
    <path
       d="M10014 7233 c-3 -10 -11 -29 -18 -43 -7 -14 -21 -51 -31 -82 -19 -57 -19 -57 4 -128 22 -65 63 -120 92 -120 11 0 12 47 0 54 -17 11 -21 67 -6 103 21 49 34 42 65 -32 7 -16 16 -37 21 -45 49 -89 79 -152 79 -169 0 -28 16 -34 47 -18 16 7 55 27 88 43 45 22 73 45 112 94 29 36 53 70 53 76 0 14 33 44 48 44 7 0 12 -15 12 -36 0 -43 -50 -131 -104 -183 -19 -19 -33 -38 -30 -43 15 -23 134 10 177 51 27 25 84 117 120 196 10 22 25 53 33 68 27 54 12 86 -25 54 -27 -23 -99 -47 -144 -47 -65 -1 -168 -26 -187 -47 -21 -22 -110 -151 -110 -161 -1 -16 -40 -53 -50 -47 -5 3 -10 24 -10 46 0 35 -22 163 -37 213 -7 25 -161 176 -179 176 -8 0 -17 -8 -20 -17z"
       id="path80" />
    <path
       d="M3576 6827 c-11 -23 -40 -72 -64 -110 l-45 -67 5 -165 c4 -116 3 -165 -5 -165 -6 0 -54 43 -107 95 -53 52 -108 99 -122 104 -18 7 -56 5 -125 -4 -131 -19 -188 -19 -246 2 -69 25 -76 9 -27 -58 70 -93 207 -235 255 -263 40 -24 53 -27 127 -24 45 2 83 8 84 13 2 6 -29 33 -67 60 -108 76 -189 197 -143 212 6 2 29 -14 50 -35 57 -55 153 -125 199 -144 22 -9 71 -20 108 -23 76 -7 100 3 92 39 -3 11 4 55 15 96 11 41 26 110 32 153 10 68 14 77 32 77 44 0 72 -106 46 -174 -13 -36 3 -40 39 -10 58 49 78 180 40 257 -34 67 -119 177 -137 177 -10 0 -25 -18 -36 -43z"
       id="path82" />
    <path
       d="M9794 6802 c-77 -103 -84 -120 -84 -212 0 -45 5 -91 11 -103 14 -27 60 -77 70 -77 4 0 7 38 6 85 -2 75 1 87 20 106 26 27 53 19 53 -16 0 -25 10 -73 36 -175 8 -30 15 -77 17 -105 l2 -50 75 3 c104 3 157 25 256 107 117 95 112 91 125 78 29 -29 -59 -138 -169 -213 -29 -19 -50 -39 -49 -45 2 -5 38 -11 81 -13 64 -2 85 1 122 20 49 24 135 110 229 229 32 41 64 77 69 81 7 5 7 11 -2 20 -9 9 -22 8 -59 -5 -58 -21 -118 -21 -240 -3 -133 21 -130 22 -270 -115 -66 -65 -97 -89 -104 -82 -8 8 -6 40 5 111 28 172 22 202 -55 322 -20 30 -42 68 -50 85 -8 16 -21 31 -29 33 -9 1 -36 -26 -66 -66z"
       id="path84" />
    <path
       d="M3846 6303 c-10 -27 -33 -81 -53 -122 -20 -40 -38 -92 -40 -115 -4 -36 19 -186 33 -207 2 -4 8 -27 13 -51 5 -24 13 -53 16 -65 12 -39 -20 -28 -103 35 -151 114 -170 125 -223 123 -27 0 -70 -7 -97 -15 -152 -45 -171 -49 -244 -43 -40 3 -83 9 -95 12 -59 18 -5 -43 181 -206 110 -96 187 -139 247 -138 56 1 175 31 172 43 -1 5 -23 18 -50 29 -128 54 -256 168 -239 213 9 24 33 16 93 -30 32 -24 85 -58 118 -76 58 -32 63 -33 185 -34 l125 -1 8 130 c5 72 9 166 11 209 2 89 13 102 51 66 35 -33 57 -106 49 -163 -6 -40 -4 -47 10 -47 9 0 22 11 28 25 6 14 14 25 18 25 11 0 30 82 30 128 0 87 -26 139 -117 233 -47 49 -91 89 -98 89 -7 0 -20 -21 -29 -47z"
       id="path86" />
    <path
       d="M9504 6268 c-99 -102 -124 -152 -124 -252 0 -65 3 -75 36 -123 20 -29 40 -53 45 -53 5 0 9 35 9 78 0 72 3 83 31 121 48 68 61 55 64 -64 1 -55 8 -128 15 -163 11 -47 11 -72 3 -102 -15 -59 -5 -63 135 -58 110 4 120 6 177 38 33 18 87 53 119 77 63 45 81 51 89 31 18 -48 -105 -159 -238 -215 -27 -12 -51 -25 -52 -30 -4 -11 136 -43 186 -43 43 0 131 47 206 112 194 165 273 252 212 233 -12 -3 -55 -9 -95 -12 -73 -6 -96 -1 -242 43 -26 8 -69 15 -97 15 -55 2 -65 -4 -226 -123 -81 -59 -114 -73 -104 -40 4 9 11 37 17 62 7 25 19 69 28 98 9 31 16 88 16 135 -1 71 -4 89 -29 132 -15 28 -38 79 -50 115 -13 36 -30 66 -37 68 -8 1 -50 -35 -94 -80z"
       id="path88" />
    <path
       d="M9054 5815 c-53 -55 -107 -114 -121 -131 -45 -60 -68 -217 -43 -302 11 -40 99 -161 118 -162 15 0 15 3 -4 91 -16 68 -16 76 0 123 21 60 53 103 81 108 19 3 20 -4 26 -112 3 -63 12 -146 19 -184 8 -43 10 -102 7 -153 l-6 -82 36 -7 c49 -9 229 2 278 18 51 16 169 85 243 141 94 72 112 77 112 32 0 -73 -204 -231 -373 -289 -31 -10 -10 -24 63 -40 93 -22 231 -21 273 1 68 35 228 166 350 288 141 141 148 159 49 131 -32 -9 -89 -16 -127 -16 -63 0 -99 7 -240 44 -122 33 -173 39 -207 25 -18 -7 -101 -64 -184 -126 -83 -62 -154 -113 -157 -113 -10 0 -9 29 3 64 5 17 17 67 26 111 9 44 23 109 31 145 21 89 12 136 -51 265 -30 60 -60 129 -67 153 -26 88 -28 88 -135 -23z"
       id="path90" />
    <path
       d="M4292 5875 c-7 -14 -12 -33 -12 -42 0 -8 -27 -70 -60 -137 -59 -121 -60 -123 -60 -207 1 -47 7 -102 15 -124 8 -22 15 -49 15 -60 0 -11 11 -62 24 -112 12 -51 21 -93 19 -93 -12 0 -59 32 -182 124 -183 135 -176 132 -259 117 -37 -7 -89 -19 -117 -26 -138 -38 -177 -45 -240 -45 -38 0 -95 7 -127 16 -92 26 -90 9 5 -87 175 -175 310 -289 394 -332 42 -22 180 -22 273 -1 73 16 94 30 63 40 -201 69 -423 260 -361 312 10 8 29 -1 83 -42 106 -80 213 -141 281 -159 64 -18 258 -24 282 -8 10 6 12 25 7 77 -4 44 -1 113 10 194 9 69 15 154 14 190 -3 63 -2 65 24 68 21 3 31 -5 54 -39 27 -41 28 -47 26 -156 -1 -84 2 -113 10 -110 7 2 34 32 61 67 l50 63 0 116 c0 109 -1 119 -28 168 -35 63 -211 253 -235 253 -10 0 -23 -11 -29 -25z"
       id="path92" />
    <path
       d="M6558 5390 c-57 -10 -143 -52 -182 -88 -45 -43 -78 -102 -98 -176 -23 -89 -23 -138 1 -214 28 -85 44 -113 91 -156 92 -83 244 -117 426 -95 151 17 144 6 144 233 0 154 -3 187 -16 200 -22 22 -275 24 -293 2 -7 -9 -11 -42 -9 -88 l3 -73 45 -5 45 -5 0 -45 c0 -44 -1 -45 -35 -48 -57 -5 -111 20 -147 67 -31 40 -33 48 -33 122 0 67 4 86 24 117 47 74 127 103 234 83 36 -7 77 -18 92 -26 22 -12 31 -12 45 -1 14 10 18 29 19 91 l1 79 -45 13 c-55 17 -248 25 -312 13z"
       id="path94" />
    <path
       d="M4919 5363 c-14 -35 -5 -440 11 -498 14 -51 36 -93 69 -128 85 -93 274 -113 408 -44 46 24 90 83 113 152 19 56 20 83 18 301 l-3 239 -95 3 c-80 2 -97 0 -107 -15 -10 -12 -13 -73 -13 -226 0 -243 -7 -283 -56 -303 -38 -16 -88 -3 -104 26 -6 11 -10 116 -10 244 0 123 -4 236 -10 250 -9 26 -11 26 -110 26 -100 0 -101 0 -111 -27z"
       id="path96" />
    <path
       d="M5771 5348 c-11 -24 -26 -62 -35 -85 -9 -24 -23 -62 -32 -85 -9 -24 -22 -59 -29 -78 -7 -19 -21 -55 -30 -80 -9 -25 -24 -63 -32 -85 -29 -76 -42 -110 -68 -179 -16 -41 -23 -72 -17 -78 5 -5 55 -7 111 -6 l103 3 12 35 c7 19 19 49 27 65 l14 30 105 0 105 0 20 -41 c11 -22 25 -51 30 -65 10 -23 14 -24 123 -27 l112 -3 0 25 c0 14 -6 40 -14 58 -8 18 -21 51 -29 73 -8 22 -28 74 -45 115 -16 41 -44 113 -62 160 -43 115 -59 159 -76 198 -8 18 -14 39 -14 46 0 7 -8 20 -18 29 -15 14 -40 17 -130 17 l-112 0 -19 -42z m167 -306 c8 -26 7 -35 -5 -47 -19 -19 -47 -19 -63 0 -14 17 0 67 27 98 20 21 16 25 41 -51z"
       id="path98" />
    <path
       d="M7015 5368 c-3 -12 -4 -174 -3 -358 l3 -335 90 -3 c143 -5 135 -13 135 129 0 130 7 146 53 116 25 -16 37 -39 61 -117 10 -30 25 -72 33 -92 l16 -37 223 0 224 0 1 92 c1 51 0 124 -1 163 -2 69 13 107 26 67 3 -10 10 -27 15 -38 8 -19 20 -55 69 -212 l23 -73 93 0 94 0 16 38 c9 20 20 51 24 67 19 67 70 229 75 233 15 15 19 -24 17 -161 -1 -84 2 -158 6 -165 6 -9 35 -12 108 -10 l99 3 0 355 0 355 -150 0 -150 0 -16 -50 c-38 -114 -77 -242 -84 -272 -3 -18 -11 -35 -16 -39 -16 -9 -37 14 -42 49 -3 18 -13 56 -22 84 -9 29 -22 74 -30 100 -8 27 -21 66 -29 88 l-14 40 -154 0 -153 0 -5 -340 c-3 -187 -7 -341 -8 -343 -12 -20 -38 37 -91 198 -5 14 -18 46 -31 73 l-22 47 24 23 c49 45 61 74 62 145 0 73 -21 124 -63 150 -63 38 -106 45 -303 49 l-197 5 -6 -24z m307 -158 c86 -24 44 -119 -48 -108 -26 3 -29 7 -32 47 -5 74 5 81 80 61z"
       id="path100" />
    <path
       d="M4219 4690 c-20 -12 -171 -64 -264 -92 -58 -17 -87 -20 -167 -15 -113 6 -121 -1 -57 -53 214 -172 368 -278 453 -314 63 -26 116 -21 300 28 28 7 52 18 54 24 2 6 -26 20 -61 31 -116 36 -241 104 -309 169 -29 27 -38 44 -38 69 0 18 4 33 10 33 5 0 38 -17 72 -38 70 -43 162 -91 223 -116 29 -12 62 -16 120 -14 100 4 105 20 19 65 -34 18 -82 56 -109 85 -137 151 -134 148 -184 148 -25 0 -53 -5 -62 -10z"
       id="path102" />
    <path
       d="M9048 4598 c-70 -75 -111 -111 -154 -133 -83 -42 -79 -59 16 -63 100 -4 137 10 332 120 48 28 92 47 97 43 48 -29 -64 -143 -204 -208 -22 -10 -48 -23 -57 -28 -10 -5 -47 -19 -83 -31 -36 -11 -64 -26 -62 -31 6 -18 208 -67 277 -67 30 0 64 10 102 29 67 34 205 124 265 172 23 19 78 63 122 99 45 36 81 70 81 76 0 9 -29 10 -102 7 -112 -6 -126 -3 -333 73 -55 20 -123 39 -151 41 l-50 5 -96 -104z"
       id="path104" />
    <path
       d="M4937 4513 c-4 -3 -7 -66 -7 -138 0 -137 8 -165 40 -145 11 7 16 36 18 120 3 78 7 110 16 110 7 0 33 -28 58 -62 25 -35 58 -76 72 -91 15 -16 34 -40 43 -53 29 -44 41 -37 144 86 12 14 26 35 32 48 6 12 13 22 17 22 4 0 20 18 35 40 15 22 31 37 36 34 5 -3 9 -61 9 -130 0 -102 3 -126 15 -130 8 -4 22 -1 30 6 13 11 15 37 13 149 l-3 136 -32 3 c-40 4 -62 -11 -110 -74 -20 -27 -43 -53 -50 -57 -7 -4 -13 -13 -13 -20 0 -7 -14 -25 -30 -41 -17 -16 -30 -33 -30 -38 0 -4 -10 -8 -23 -8 -18 0 -43 28 -112 120 -85 115 -91 120 -125 120 -20 0 -40 -3 -43 -7z"
       id="path106" />
    <path
       d="M6017 4513 c-4 -3 -7 -68 -7 -144 0 -107 3 -138 14 -142 29 -11 36 17 36 136 0 115 0 118 19 104 11 -7 57 -62 103 -123 106 -140 109 -140 198 -23 104 136 139 174 145 158 2 -8 6 -68 7 -133 3 -119 8 -135 38 -116 12 7 15 35 15 147 l0 138 -39 3 c-35 3 -44 -1 -73 -33 -18 -20 -33 -40 -33 -46 0 -5 -3 -9 -7 -9 -5 0 -28 -27 -53 -60 -24 -33 -48 -60 -52 -60 -5 0 -8 -7 -8 -15 0 -9 -9 -15 -23 -15 -17 0 -36 17 -69 63 -121 163 -135 177 -172 177 -18 0 -36 -3 -39 -7z"
       id="path108" />
    <path
       d="M7086 4512 c-3 -5 23 -30 58 -55 87 -64 93 -73 71 -97 -10 -11 -24 -20 -31 -20 -7 0 -17 -6 -21 -12 -4 -7 -30 -31 -57 -52 -84 -68 -31 -51 65 20 100 75 103 75 173 12 17 -16 36 -28 43 -28 7 0 13 -4 13 -10 0 -10 52 -40 70 -40 6 0 3 11 -6 25 -9 14 -21 25 -28 25 -6 0 -24 12 -41 28 -16 15 -38 32 -49 37 -35 18 -41 40 -18 63 12 12 24 22 27 22 10 0 105 74 105 82 0 23 -47 -1 -103 -52 -15 -14 -42 -33 -59 -42 l-31 -17 -78 60 c-78 59 -93 67 -103 51z"
       id="path110" />
    <path
       d="M7918 4510 c-1 -5 -2 -70 0 -144 3 -110 6 -135 18 -140 9 -3 20 -4 25 0 5 3 9 70 9 150 l0 144 -24 0 c-13 0 -26 -4 -28 -10z"
       id="path112" />
    <path
       d="M8454 4506 c-3 -8 -4 -71 -2 -141 2 -98 6 -128 18 -135 8 -5 20 -8 25 -7 6 2 11 64 13 150 l3 147 -26 0 c-14 0 -28 -6 -31 -14z"
       id="path114" />
    <path
       d="M5276 3752 c-10 -9 -7 -44 8 -102 7 -30 17 -79 20 -108 l7 -54 -86 -87 c-47 -48 -85 -93 -85 -99 0 -6 10 -14 23 -16 60 -13 157 -26 190 -26 42 0 41 1 114 -138 26 -51 52 -93 57 -95 10 -2 53 74 87 154 12 30 27 59 33 66 10 10 113 33 219 48 55 9 47 30 -42 110 -107 96 -108 98 -88 193 20 90 22 162 6 162 -12 0 -148 -72 -184 -96 -31 -22 -51 -17 -166 40 -59 30 -110 51 -113 48z"
       id="path116" />
    <path
       d="M8070 3738 c-19 -11 -56 -32 -83 -45 -26 -14 -50 -29 -53 -34 -7 -12 -67 -12 -79 0 -17 17 -173 91 -191 91 -13 0 -15 -6 -10 -32 4 -18 12 -59 17 -90 5 -32 14 -69 19 -84 6 -14 10 -31 10 -37 0 -7 -41 -55 -90 -107 -50 -52 -90 -98 -90 -102 0 -4 17 -10 38 -13 20 -4 59 -11 85 -16 26 -5 68 -9 91 -9 43 0 44 -1 75 -57 17 -32 43 -84 58 -115 16 -34 34 -58 43 -58 9 0 25 22 38 53 13 28 37 79 53 112 l29 61 83 17 c45 9 94 17 109 17 82 0 76 28 -28 125 l-87 81 12 104 c6 58 14 117 17 133 5 22 3 27 -12 26 -11 0 -35 -10 -54 -21z"
       id="path118" />
    <path
       d="M6855 3494 c-155 -87 -126 -84 -255 -20 -77 39 -116 54 -123 47 -7 -7 -6 -34 6 -83 9 -40 19 -96 22 -125 l7 -52 -84 -86 c-45 -48 -84 -93 -86 -100 -4 -15 21 -21 138 -30 113 -10 121 -15 182 -134 30 -58 59 -106 65 -108 6 -2 23 21 37 51 14 31 37 80 51 110 14 30 32 59 40 66 8 6 43 16 77 20 205 28 202 24 84 134 l-98 91 16 86 c17 92 21 165 8 172 -4 3 -43 -15 -87 -39z"
       id="path120" />
    <path
       d="M9733 15483 c-27 -32 -75 -89 -108 -128 -32 -38 -77 -92 -101 -120 -110 -129 -124 -147 -124 -161 0 -19 50 -63 71 -64 10 0 59 50 110 112 103 122 140 161 147 154 5 -6 -14 -152 -33 -251 -7 -38 -16 -96 -19 -129 l-6 -59 41 -38 c23 -21 47 -35 55 -32 23 8 384 446 384 464 0 24 -55 68 -77 62 -10 -2 -32 -23 -50 -46 -18 -23 -48 -60 -68 -82 -19 -22 -52 -61 -72 -87 -51 -66 -66 -64 -58 10 4 31 13 93 20 137 33 193 36 233 24 252 -11 18 -69 63 -81 63 -3 0 -27 -26 -55 -57z"
       id="path122" />
    <path
       d="M3395 15309 c-20 -18 -35 -38 -33 -45 6 -26 370 -454 386 -454 21 1 316 246 320 267 5 18 -36 63 -56 63 -13 0 -126 -85 -172 -130 -61 -57 -56 -57 -97 -13 -21 21 -56 61 -78 87 -22 27 -71 85 -108 130 -38 45 -78 91 -88 104 -25 29 -31 28 -74 -9z"
       id="path124" />
    <path
       d="M3145 15079 l-40 -40 150 -145 c167 -163 185 -185 185 -233 0 -26 -9 -43 -44 -77 -37 -38 -49 -44 -84 -44 -38 0 -49 8 -207 156 l-166 157 -27 -20 c-15 -11 -33 -31 -41 -44 -13 -24 -11 -28 95 -131 158 -153 212 -201 247 -220 44 -24 127 -23 174 2 44 23 120 99 151 151 31 52 30 137 -2 187 -26 41 -328 342 -343 342 -5 0 -27 -18 -48 -41z"
       id="path126" />
    <path
       d="M10080 14869 c-112 -114 -206 -213 -208 -219 -5 -14 57 -80 75 -80 15 0 406 389 423 420 10 18 6 26 -23 55 -19 19 -41 34 -48 34 -8 -1 -106 -95 -219 -210z"
       id="path128" />
    <path
       d="M10434 14819 c-105 -92 -177 -155 -253 -220 -40 -35 -89 -78 -109 -95 -19 -16 -33 -35 -31 -41 8 -20 282 -332 298 -338 24 -9 74 50 62 73 -6 9 -53 66 -105 126 -53 60 -96 112 -96 116 0 15 102 100 119 100 10 0 47 -35 84 -77 36 -43 79 -91 95 -106 l30 -29 31 23 c49 36 47 40 -59 159 -104 117 -101 107 -46 157 46 41 48 42 70 26 12 -9 34 -33 50 -52 64 -82 139 -161 155 -161 24 1 61 35 61 57 0 10 -17 36 -38 58 -20 22 -64 71 -97 110 -33 38 -77 88 -97 110 -21 22 -38 43 -38 48 0 19 -32 3 -86 -44z"
       id="path130" />
    <path
       d="M2665 14519 c-53 -28 -89 -63 -128 -124 -30 -47 -32 -55 -32 -140 1 -80 3 -94 27 -132 68 -105 159 -172 261 -193 146 -30 285 61 327 214 15 53 3 123 -28 179 -23 39 -33 37 -121 -29 -2 -2 6 -23 18 -47 28 -57 27 -84 -6 -135 -26 -39 -79 -72 -118 -72 -41 0 -103 30 -161 78 -94 77 -116 145 -72 224 29 51 87 82 134 73 30 -5 36 -3 54 27 24 40 26 84 4 92 -35 14 -120 6 -159 -15z"
       id="path132" />
    <path
       d="M10880 14358 c-209 -144 -447 -320 -454 -337 -8 -17 41 -91 60 -91 14 0 85 47 155 101 47 37 65 36 85 -3 19 -37 14 -124 -11 -182 -8 -20 -21 -51 -29 -70 -30 -71 -30 -98 4 -143 34 -45 57 -54 66 -25 3 9 19 49 35 87 16 39 34 96 40 128 13 61 27 71 61 40 28 -25 129 -24 165 3 50 37 93 102 93 140 0 39 -41 120 -104 204 -23 30 -49 66 -58 80 -9 14 -29 40 -45 58 l-28 34 -35 -24z m72 -195 c69 -96 82 -122 70 -148 -17 -37 -56 -58 -95 -51 -26 5 -44 21 -85 76 -29 38 -52 76 -52 84 0 19 87 86 111 86 9 0 33 -21 51 -47z"
       id="path134" />
    <path
       d="M11385 13881 c-16 -3 -29 -11 -28 -16 7 -37 15 -43 70 -58 109 -31 126 -20 72 46 -32 38 -48 42 -114 28z"
       id="path136" />
    <path
       d="M2161 13833 c-17 -25 -31 -51 -31 -56 0 -11 24 -46 114 -166 39 -51 80 -106 91 -121 37 -52 148 -195 168 -217 24 -27 38 -19 68 39 l20 39 -41 56 c-40 56 -49 86 -30 98 5 3 27 36 49 73 57 97 64 102 136 91 62 -10 105 -1 105 22 0 7 7 20 16 30 9 10 14 25 11 33 -6 14 -29 20 -197 51 -153 28 -247 46 -315 61 -115 24 -128 21 -164 -33z m239 -103 c76 -14 110 -26 110 -40 0 -24 -70 -119 -83 -114 -21 8 -117 138 -117 158 0 12 5 16 14 13 8 -3 42 -11 76 -17z"
       id="path138" />
    <path
       d="M11234 13792 c-46 -30 -45 -30 -173 -109 -51 -32 -104 -65 -116 -73 -13 -8 -55 -35 -94 -59 -39 -24 -71 -48 -71 -54 0 -13 49 -97 57 -97 6 0 114 66 338 207 66 41 132 82 147 91 34 21 42 40 26 59 -7 8 -17 25 -23 37 -15 30 -44 30 -91 -2z"
       id="path140" />
    <path
       d="M1954 13499 c-3 -6 -27 -50 -52 -98 -24 -47 -62 -119 -83 -160 -22 -40 -39 -79 -39 -86 0 -7 24 -24 53 -39 56 -30 200 -106 312 -166 120 -65 168 -90 171 -90 10 0 55 93 51 104 -3 7 -25 23 -49 36 -121 62 -151 79 -159 91 -4 8 7 38 28 78 68 123 75 141 63 156 -16 20 -70 39 -80 29 -5 -5 -28 -45 -50 -89 -66 -127 -71 -130 -153 -78 -32 20 -36 27 -31 51 4 15 11 32 16 39 16 20 98 181 98 191 0 12 -56 42 -76 42 -7 0 -16 -5 -20 -11z"
       id="path142" />
    <path
       d="M11400 13413 c-52 -7 -147 -20 -210 -28 -63 -8 -155 -19 -205 -25 -49 -6 -94 -15 -99 -20 -11 -11 32 -97 53 -105 8 -3 41 0 74 6 57 12 60 11 77 -11 25 -34 100 -184 100 -201 0 -8 -18 -34 -40 -57 -22 -24 -40 -51 -40 -59 0 -25 42 -103 56 -103 6 0 38 33 70 72 32 40 66 80 75 89 54 54 279 331 279 344 0 27 -61 115 -78 114 -10 -1 -60 -8 -112 -16z m10 -129 c0 -9 -26 -47 -57 -83 -31 -36 -59 -68 -60 -71 -9 -10 -39 20 -60 60 -32 60 -30 78 10 84 46 7 151 23 160 25 4 0 7 -6 7 -15z"
       id="path144" />
    <path
       d="M1792 12412 c-12 -4 -38 -22 -56 -39 -87 -85 -65 -207 48 -265 49 -25 102 -20 155 15 93 62 95 202 4 271 -26 19 -114 30 -151 18z"
       id="path146" />
    <path
       d="M11513 12405 c-50 -21 -93 -89 -93 -144 1 -77 43 -133 121 -161 30 -11 45 -11 80 -1 118 33 166 156 98 250 -48 66 -131 89 -206 56z"
       id="path148" />
    <path
       d="M11972 11692 c-40 -4 -84 -29 -110 -63 -30 -39 -42 -100 -42 -207 0 -110 -9 -148 -37 -154 -49 -11 -93 48 -93 124 0 33 6 49 30 73 l29 30 -17 48 c-9 26 -23 47 -30 47 -50 0 -120 -83 -130 -152 -6 -46 21 -146 55 -200 69 -111 211 -119 285 -15 19 27 23 47 26 157 5 137 17 176 57 186 34 8 48 1 81 -41 19 -26 29 -52 32 -88 4 -49 2 -54 -32 -89 -40 -41 -43 -53 -22 -103 19 -45 41 -45 94 1 70 60 93 147 63 244 -46 156 -115 214 -239 202z"
       id="path150" />
    <path
       d="M1379 11640 c-126 -67 -194 -238 -140 -355 22 -48 85 -115 109 -115 10 0 30 19 45 42 l27 42 -35 36 c-74 75 -64 175 22 232 57 37 211 12 290 -48 44 -33 69 -101 53 -148 -17 -52 -48 -86 -97 -107 l-44 -19 3 -52 c3 -47 6 -53 27 -56 57 -8 152 57 193 132 18 34 22 58 23 137 0 94 -1 98 -35 148 -37 55 -107 107 -180 134 -65 24 -213 23 -261 -3z"
       id="path152" />
    <path
       d="M12233 11127 c-38 -12 -41 -29 -19 -116 46 -183 50 -211 35 -227 -17 -16 -121 -36 -144 -28 -8 3 -17 22 -20 42 -4 21 -12 64 -20 97 -8 33 -17 76 -20 97 -3 20 -12 39 -20 41 -18 7 -84 -3 -90 -14 -3 -4 1 -34 9 -66 49 -199 51 -214 32 -229 -26 -19 -105 -29 -118 -16 -6 6 -15 35 -20 64 -14 94 -45 219 -56 230 -14 14 -82 1 -89 -18 -3 -8 1 -43 10 -77 8 -34 22 -98 32 -142 28 -132 47 -205 56 -210 4 -3 34 1 66 9 32 8 94 22 138 31 80 17 136 29 295 63 l85 19 -1 54 c0 30 -11 97 -23 149 -12 52 -26 119 -31 148 -10 57 -29 104 -45 108 -5 1 -25 -3 -42 -9z"
       id="path154" />
    <path
       d="M1151 11051 c-13 -8 -33 -89 -25 -102 4 -6 86 -28 209 -54 182 -38 223 -47 277 -61 32 -8 71 -14 87 -14 25 0 30 5 41 45 7 24 10 50 7 57 -2 7 -42 21 -88 31 -46 10 -111 24 -144 31 -33 8 -96 21 -140 30 -44 9 -108 23 -142 31 -72 17 -64 17 -82 6z"
       id="path156" />
    <path
       d="M1092 10788 c-6 -8 -14 -38 -17 -68 -4 -30 -13 -86 -20 -125 -41 -207 -46 -238 -38 -245 4 -5 24 -11 44 -15 47 -9 57 5 68 91 6 38 15 96 21 129 7 33 14 70 16 83 3 15 11 22 28 22 32 0 129 -21 139 -31 5 -4 2 -40 -6 -80 -39 -195 -40 -202 -21 -216 10 -7 33 -13 51 -13 26 0 33 5 37 23 2 12 10 51 16 87 7 36 16 85 19 110 4 25 10 51 14 58 12 19 91 15 117 -6 22 -18 22 -19 7 -93 -27 -128 -39 -208 -34 -223 8 -21 73 -32 92 -16 8 7 15 29 15 49 0 20 6 68 14 106 60 287 60 280 -6 295 -29 6 -80 16 -113 20 -59 9 -112 18 -250 45 -120 24 -180 28 -193 13z"
       id="path158" />
    <path
       d="M12360 10494 c-14 -2 -77 -11 -140 -19 -110 -15 -263 -38 -360 -53 l-45 -7 0 -50 0 -50 53 -3 c29 -2 90 4 136 12 90 17 186 21 186 8 0 -8 -45 -46 -258 -217 l-74 -60 5 -54 c3 -29 10 -58 15 -63 10 -10 47 -6 257 27 50 8 113 16 140 19 66 7 205 33 211 39 7 7 -13 88 -24 99 -6 6 -31 5 -68 -2 -33 -6 -95 -15 -140 -20 -44 -4 -97 -12 -117 -15 -31 -6 -36 -5 -31 8 5 15 129 122 214 186 25 19 62 50 83 70 35 34 37 38 31 81 -5 39 -27 73 -43 69 -3 -1 -17 -3 -31 -5z"
       id="path160" />
    <path
       d="M985 10177 c-4 -8 -5 -34 -3 -58 3 -42 4 -44 38 -46 94 -6 320 -38 320 -45 0 -5 -48 -31 -107 -59 -312 -149 -286 -131 -296 -207 -7 -54 -2 -57 143 -71 63 -7 169 -18 235 -26 215 -26 225 -26 236 2 5 13 9 38 9 54 0 36 -27 49 -103 49 -71 1 -248 27 -259 38 -6 6 12 20 49 37 32 15 96 45 143 67 47 22 105 50 129 61 67 31 81 49 81 106 l0 48 -132 16 c-421 51 -476 55 -483 34z"
       id="path162" />
    <path
       d="M12140 9841 c-112 -25 -173 -69 -216 -153 -20 -40 -24 -62 -24 -137 0 -140 44 -215 160 -277 28 -15 57 -18 145 -18 101 0 116 2 168 27 63 31 106 72 139 132 30 56 30 200 1 265 -39 87 -105 137 -214 164 -76 19 -64 19 -159 -3z m207 -148 c41 -26 60 -52 73 -100 14 -47 8 -83 -22 -131 -29 -48 -89 -75 -178 -80 -120 -6 -185 33 -211 130 -23 87 37 180 128 199 62 13 177 3 210 -18z"
       id="path164" />
    <path
       d="M1078 9531 c-139 -55 -209 -199 -166 -345 18 -62 41 -95 94 -132 53 -38 82 -43 90 -16 3 9 12 31 20 47 13 28 12 31 -8 45 -11 8 -38 31 -60 51 -34 33 -38 42 -38 86 0 39 6 59 29 91 31 42 36 45 114 62 58 13 166 -3 212 -30 69 -42 89 -150 38 -210 -14 -17 -37 -36 -51 -41 -22 -9 -23 -12 -17 -62 4 -28 10 -55 14 -60 16 -16 74 8 115 48 99 96 104 273 10 383 -59 69 -146 102 -269 101 -53 0 -96 -6 -127 -18z"
       id="path166" />
    <path
       d="M12180 9146 l-245 -11 -3 -57 c-2 -42 1 -58 10 -58 82 -3 453 4 518 9 l85 6 3 50 c4 61 -12 76 -77 73 -25 -1 -156 -6 -291 -12z"
       id="path168" />
    <path
       d="M12060 8879 c-97 -53 -130 -114 -130 -236 0 -79 3 -93 30 -139 60 -106 147 -148 300 -147 70 1 105 6 135 19 65 30 110 70 138 123 23 42 27 60 27 135 0 98 -11 129 -68 188 -37 39 -93 65 -113 52 -16 -9 -40 -70 -34 -86 3 -7 21 -23 41 -36 41 -27 74 -77 74 -113 0 -35 -23 -90 -47 -111 -55 -50 -202 -65 -282 -29 -114 50 -131 193 -31 256 22 14 40 33 40 43 0 16 -36 103 -42 101 -2 0 -19 -9 -38 -20z"
       id="path170" />
    <path
       d="M1100 8870 l-195 -5 0 -55 0 -55 185 -3 c102 -2 240 0 307 3 l122 7 6 32 c4 17 2 44 -4 59 l-11 27 -107 -2 c-60 -1 -196 -5 -303 -8z"
       id="path172" />
    <path
       d="M894 8647 c-7 -20 1 -86 13 -98 6 -6 37 -18 69 -28 69 -22 70 -24 75 -167 l4 -99 -67 -33 -68 -33 0 -59 c0 -32 4 -61 9 -64 5 -4 54 15 108 40 123 57 152 71 358 162 32 15 77 36 100 48 l40 21 -3 59 c-2 32 -7 63 -12 68 -10 10 -67 33 -115 45 -16 5 -41 13 -55 18 -14 6 -72 25 -130 43 -58 18 -121 38 -140 45 -132 48 -177 55 -186 32z m344 -206 c31 -10 72 -22 90 -26 17 -4 32 -9 32 -13 0 -10 -33 -42 -43 -42 -6 0 -39 -14 -74 -30 -35 -17 -68 -28 -74 -25 -10 7 -13 138 -2 148 9 9 6 10 71 -12z"
       id="path174" />
    <path
       d="M12475 8248 c-61 -21 -145 -46 -325 -98 -224 -65 -240 -71 -246 -94 -3 -12 -4 -44 -2 -71 3 -47 4 -48 58 -76 177 -90 493 -240 512 -242 22 -2 23 2 23 58 l0 59 -53 27 c-29 14 -55 29 -59 33 -8 8 -5 200 3 228 5 16 58 40 115 52 30 6 39 28 39 94 0 46 -7 49 -65 30z m-203 -258 c-3 -90 -12 -96 -91 -59 -36 17 -75 35 -88 40 -34 13 -28 26 20 42 173 59 163 60 159 -23z"
       id="path176" />
    <path
       d="M1356 8000 c-75 -24 -117 -100 -136 -251 -10 -80 -31 -111 -75 -111 -46 0 -76 40 -81 108 -6 71 8 103 53 124 18 8 35 22 38 31 8 24 -20 94 -39 97 -30 6 -106 -48 -137 -96 -26 -42 -29 -54 -28 -131 0 -139 48 -226 139 -256 100 -33 194 17 232 122 9 26 17 64 17 84 1 40 28 138 43 157 16 19 55 14 73 -10 8 -13 20 -39 25 -60 13 -47 0 -84 -45 -123 -34 -30 -34 -31 -24 -78 6 -27 17 -51 25 -54 20 -8 108 54 130 91 15 25 19 50 18 126 0 105 -17 151 -71 202 -32 30 -107 44 -157 28z"
       id="path178" />
    <path
       d="M11977 7613 c-16 -3 -49 -26 -80 -56 -92 -90 -111 -210 -53 -329 31 -61 76 -100 160 -137 69 -30 234 -34 286 -7 98 52 141 111 160 219 19 106 -22 206 -105 257 -43 27 -57 22 -78 -23 -24 -49 -21 -63 14 -84 34 -20 69 -79 69 -115 -1 -47 -37 -106 -79 -127 -84 -43 -243 -19 -307 48 -32 32 -34 39 -34 101 0 65 1 69 35 99 20 17 42 31 50 31 22 0 35 34 28 76 -5 35 -19 56 -33 52 -3 0 -17 -3 -33 -5z"
       id="path180" />
    <path
       d="M1570 7199 c-150 -31 -194 -39 -270 -54 -47 -9 -121 -24 -165 -34 -91 -21 -94 -25 -77 -105 6 -28 19 -89 28 -134 30 -143 88 -206 209 -231 49 -10 74 -9 135 3 133 26 197 61 248 139 24 37 27 48 26 126 -1 47 -9 114 -18 147 -9 34 -16 74 -16 89 0 36 -17 65 -38 64 -9 -1 -37 -5 -62 -10z m17 -184 c40 -157 -17 -229 -200 -250 -130 -15 -177 18 -203 141 -16 78 -10 91 45 99 42 6 149 28 241 48 96 22 102 20 117 -38z"
       id="path182" />
    <path
       d="M11755 6998 c-4 -14 -5 -40 -3 -59 3 -31 7 -35 43 -42 125 -25 189 -37 265 -52 47 -9 114 -22 150 -30 123 -26 129 -26 140 -4 6 11 12 39 13 62 2 38 0 42 -23 45 -14 1 -54 9 -90 16 -36 8 -103 22 -150 31 -47 9 -116 22 -155 30 -38 8 -96 18 -127 21 -55 6 -57 6 -63 -18z"
       id="path184" />
    <path
       d="M11714 6765 c-11 -8 -17 -27 -18 -55 -1 -42 0 -44 34 -52 19 -4 60 -15 90 -23 30 -8 93 -24 139 -35 46 -11 86 -22 89 -24 8 -8 -62 -46 -85 -46 -12 0 -37 -6 -55 -14 -18 -7 -55 -20 -83 -28 -203 -62 -193 -57 -211 -103 -9 -24 -14 -51 -12 -61 3 -19 10 -22 116 -48 34 -9 90 -23 125 -32 34 -8 88 -22 120 -30 31 -8 83 -21 115 -30 99 -26 114 -24 134 18 30 62 26 64 -132 103 -67 16 -179 46 -200 52 -26 8 15 30 109 58 309 95 295 89 312 143 20 64 15 80 -29 88 -20 3 -59 12 -87 19 -27 8 -77 20 -110 29 -136 33 -182 45 -225 57 -87 23 -119 27 -136 14z"
       id="path186" />
    <path
       d="M1710 6576 c-19 -8 -64 -21 -100 -31 -36 -9 -83 -23 -105 -29 -45 -14 -132 -40 -215 -63 -84 -24 -100 -31 -100 -48 0 -8 12 -54 26 -102 14 -49 30 -104 34 -123 17 -70 47 -166 59 -188 9 -17 18 -21 29 -16 9 3 27 9 40 11 26 6 29 37 8 104 -7 24 -21 71 -31 104 -9 33 -22 72 -27 88 -8 22 -7 31 5 45 19 21 135 49 146 36 8 -11 61 -182 75 -246 7 -31 36 -37 81 -16 22 10 25 17 20 37 -14 61 -25 100 -44 166 -29 99 -29 99 33 120 45 16 57 16 70 6 9 -8 16 -21 16 -29 0 -9 6 -34 14 -57 17 -52 43 -142 51 -177 5 -25 10 -28 43 -28 61 0 68 10 53 72 -7 29 -19 76 -27 103 -8 28 -22 75 -31 105 -53 181 -54 182 -123 156z"
       id="path188" />
    <path
       d="M11562 6161 c-16 -10 -36 -91 -25 -101 4 -4 33 -15 63 -25 30 -10 71 -23 90 -30 19 -7 80 -27 135 -45 125 -41 161 -61 168 -99 11 -52 -4 -101 -40 -137 -50 -51 -42 -52 -368 56 -102 34 -127 36 -145 15 -19 -23 -25 -94 -9 -99 12 -3 174 -55 357 -112 23 -8 68 -14 98 -14 100 0 165 58 204 181 38 119 17 204 -65 261 -22 15 -112 50 -200 78 -88 29 -175 58 -193 66 -37 16 -52 17 -70 5z"
       id="path190" />
    <path
       d="M1968 5805 c-7 -7 -103 -44 -143 -55 -16 -5 -55 -18 -85 -30 -30 -12 -66 -25 -80 -30 -75 -26 -192 -70 -211 -80 -23 -13 -23 -15 11 -100 12 -30 25 -66 30 -80 5 -14 18 -50 30 -80 12 -30 26 -72 32 -93 13 -47 36 -60 76 -46 32 11 47 33 35 52 -12 20 -75 202 -80 233 l-5 31 104 37 c56 21 119 43 138 50 98 38 119 45 162 61 57 20 61 25 52 70 -9 49 -45 81 -66 60z"
       id="path192" />
    <path
       d="M11357 5573 c-16 -19 -46 -91 -54 -134 -4 -23 9 -36 145 -138 179 -133 187 -141 143 -141 -18 0 -62 4 -99 10 -37 5 -113 14 -170 21 -94 10 -104 10 -122 -6 -11 -10 -20 -24 -20 -30 0 -7 -9 -34 -21 -59 -24 -55 -20 -72 18 -87 15 -7 42 -17 58 -24 40 -18 180 -74 230 -92 44 -16 100 -40 127 -54 21 -11 100 -39 110 -39 12 0 50 81 45 94 -3 7 -40 27 -84 45 -43 18 -109 46 -147 62 -38 16 -72 29 -77 29 -4 0 -25 12 -46 26 l-38 27 50 -7 c28 -4 88 -11 135 -16 47 -5 109 -14 139 -20 29 -5 70 -10 91 -10 32 0 38 4 53 35 9 20 17 44 17 53 0 11 -56 59 -147 127 -154 115 -214 165 -195 165 6 0 14 -4 17 -10 3 -5 15 -10 25 -10 11 0 34 -6 52 -14 87 -37 255 -105 274 -111 28 -7 66 38 62 74 -3 28 -12 33 -130 80 -43 17 -113 45 -155 62 -43 17 -112 45 -153 61 -41 16 -83 34 -92 39 -23 12 -22 12 -41 -8z"
       id="path194" />
    <path
       d="M2135 5153 c-38 -2 -151 -10 -251 -18 -99 -8 -199 -15 -221 -15 -23 0 -44 -4 -47 -9 -4 -5 5 -32 19 -60 l26 -51 77 0 78 0 47 -99 c26 -54 47 -105 47 -112 0 -8 -20 -35 -45 -59 -51 -50 -54 -64 -25 -120 32 -62 2 -85 300 231 215 228 195 197 164 255 -30 56 -40 64 -74 62 -14 -1 -56 -3 -95 -5z m5 -134 c0 -5 -29 -40 -64 -76 -43 -44 -69 -64 -79 -60 -9 3 -25 27 -36 53 -22 48 -26 76 -14 87 11 12 193 8 193 -4z"
       id="path196" />
    <path
       d="M11091 4823 c-56 -20 -129 -91 -161 -158 -21 -41 -25 -65 -25 -135 0 -76 3 -90 29 -133 34 -58 91 -106 173 -146 54 -27 73 -31 143 -31 95 0 138 17 199 82 63 65 91 134 91 224 0 50 -5 86 -16 107 -80 155 -282 243 -433 190z m143 -115 c60 -18 130 -63 162 -106 24 -31 29 -46 29 -97 0 -48 -5 -67 -25 -93 -53 -72 -139 -90 -233 -48 -148 65 -194 178 -117 285 47 64 104 82 184 59z"
       id="path198" />
    <path
       d="M2380 4483 c-42 -15 -128 -59 -153 -77 -91 -67 -142 -191 -118 -289 31 -127 143 -227 252 -227 76 0 94 26 65 94 -14 33 -16 34 -63 33 -64 -2 -114 33 -139 98 -17 45 -16 48 2 93 34 81 162 162 257 162 45 0 53 -4 93 -43 50 -50 62 -88 44 -131 -26 -65 -24 -83 11 -116 40 -36 49 -37 70 -7 18 24 49 108 49 131 0 53 -57 172 -101 213 -56 50 -114 73 -186 72 -37 0 -75 -3 -83 -6z"
       id="path200" />
    <path
       d="M10725 4233 c-74 -39 -135 -122 -154 -211 -27 -129 46 -252 200 -336 59 -32 73 -36 143 -36 134 0 224 66 273 200 21 58 16 119 -16 180 -33 64 -50 69 -102 27 l-35 -28 29 -59 30 -60 -18 -45 c-43 -114 -172 -127 -300 -30 -50 38 -69 60 -91 107 -16 35 -16 40 0 83 24 62 78 105 132 105 23 0 46 6 51 13 16 21 35 86 28 97 -10 16 -136 11 -170 -7z"
       id="path202" />
    <path
       d="M2744 3925 c-92 -29 -199 -117 -240 -198 -37 -75 -34 -170 8 -249 84 -158 241 -215 394 -144 63 30 145 103 180 164 25 42 29 56 28 132 0 102 -19 146 -99 226 -76 77 -171 101 -271 69z m146 -121 c43 -9 95 -65 110 -118 15 -56 3 -97 -47 -155 -73 -86 -166 -123 -241 -97 -76 27 -112 77 -112 157 0 47 5 63 30 98 32 44 105 101 143 113 30 8 78 9 117 2z"
       id="path204" />
    <path
       d="M10391 3788 c-6 -7 -28 -34 -48 -59 -38 -46 -189 -240 -208 -266 -12 -17 2 -30 181 -168 43 -33 122 -95 175 -137 60 -48 106 -78 121 -78 17 0 37 20 78 76 30 42 64 86 75 97 12 12 47 57 80 101 l60 78 -35 29 c-19 16 -38 29 -42 29 -8 0 -72 -76 -150 -178 -68 -88 -74 -90 -136 -36 -29 25 -52 52 -52 61 0 8 33 56 73 107 104 129 104 128 63 160 -19 14 -41 24 -48 21 -7 -3 -48 -53 -92 -110 -53 -71 -85 -105 -98 -105 -23 0 -98 56 -98 74 0 6 17 32 38 58 102 126 142 181 142 198 0 10 -13 28 -29 39 -34 25 -37 25 -50 9z"
       id="path206" />
    <path
       d="M3057 3284 c-119 -107 -217 -202 -217 -211 0 -17 53 -73 69 -73 5 0 73 58 152 130 79 71 150 130 157 130 17 0 15 -15 -3 -30 -8 -7 -15 -16 -15 -20 0 -4 -34 -58 -76 -121 -42 -63 -87 -133 -101 -157 -27 -46 -27 -47 25 -101 l23 -24 132 68 c73 38 151 78 173 90 23 12 51 24 62 27 18 5 20 3 12 -12 -5 -10 -24 -30 -42 -45 -74 -62 -238 -217 -238 -227 0 -15 51 -78 64 -78 6 0 22 10 36 23 14 13 70 63 125 112 55 49 105 93 111 99 6 6 50 46 98 90 47 43 86 82 86 86 0 18 -104 130 -121 130 -10 0 -94 -39 -188 -87 -94 -48 -174 -84 -177 -80 -4 3 8 30 27 59 68 108 142 224 160 250 11 15 19 32 19 38 0 19 -102 130 -119 130 -9 0 -114 -88 -234 -196z"
       id="path208" />
    <path
       d="M9808 3100 c-16 -16 -28 -36 -28 -45 0 -18 413 -425 431 -425 8 0 276 280 290 301 9 16 -36 69 -59 69 -7 0 -57 -45 -109 -100 -53 -55 -103 -100 -110 -100 -8 0 -91 73 -185 163 -93 89 -177 163 -186 164 -9 1 -29 -11 -44 -27z"
       id="path210" />
    <path
       d="M9570 2879 c-52 -44 -106 -90 -120 -102 -14 -13 -44 -37 -67 -56 -45 -34 -53 -59 -27 -85 15 -16 115 -134 272 -323 46 -57 91 -103 99 -103 15 0 34 14 108 75 176 147 245 208 245 215 0 12 -50 70 -61 70 -7 0 -81 -61 -242 -199 -18 -15 -22 -12 -68 39 -26 30 -49 62 -49 72 0 9 24 36 53 59 28 24 54 46 57 49 3 3 26 22 53 43 53 43 58 63 24 95 -31 30 -45 28 -90 -12 -69 -62 -129 -111 -157 -129 l-27 -17 -37 44 c-20 24 -36 51 -36 58 0 8 15 26 33 41 18 14 45 36 59 49 14 13 53 46 86 73 34 28 62 52 62 55 0 9 -58 70 -67 70 -4 0 -51 -36 -103 -81z"
       id="path212" />
    <path
       d="M3709 2853 c-46 -54 -105 -123 -130 -153 -71 -85 -101 -120 -136 -160 -18 -21 -33 -46 -33 -56 0 -18 59 -74 79 -74 5 0 39 36 76 80 37 44 72 80 78 80 7 0 37 -22 68 -48 66 -57 117 -83 174 -90 115 -12 232 136 195 247 -13 40 -84 119 -155 173 -16 12 -32 25 -35 29 -9 13 -83 69 -90 69 -5 0 -46 -44 -91 -97z m193 -120 c26 -27 49 -59 53 -73 16 -65 -46 -119 -111 -96 -39 13 -124 82 -124 100 0 6 19 35 43 63 55 68 77 69 139 6z"
       id="path214" />
    <path
       d="M9090 2500 c-80 -55 -154 -104 -165 -109 -11 -5 -30 -18 -42 -30 -25 -24 -21 -50 11 -80 l23 -22 60 41 c33 22 69 40 79 40 12 0 31 -19 49 -48 142 -219 238 -352 256 -352 28 0 79 40 79 62 0 16 -41 80 -203 315 -31 46 -57 91 -57 101 0 17 48 62 67 62 4 1 20 11 35 23 28 22 28 23 10 57 -9 20 -26 36 -37 38 -12 1 -78 -37 -165 -98z"
       id="path216" />
    <path
       d="M4234 2572 c-18 -12 -223 -328 -245 -378 -46 -103 -2 -204 119 -277 119 -72 198 -68 279 16 51 52 253 353 253 376 -1 17 -62 61 -85 61 -8 0 -57 -64 -109 -142 -113 -172 -150 -219 -182 -236 -36 -19 -79 -6 -125 35 -34 31 -39 41 -39 80 0 41 11 62 115 219 64 96 118 181 121 188 3 8 -12 24 -40 40 -50 29 -47 28 -62 18z"
       id="path218" />
    <path
       d="M4721 2236 c-12 -12 -21 -34 -21 -48 0 -23 9 -31 65 -57 36 -17 68 -38 71 -46 5 -11 -107 -253 -187 -406 -25 -49 -24 -54 15 -78 66 -41 65 -42 183 199 83 170 112 220 126 220 11 0 41 -11 69 -25 71 -36 94 -33 109 12 15 45 15 45 -146 123 -66 32 -152 73 -192 93 l-72 35 -20 -22z"
       id="path220" />
    <path
       d="M8565 2181 l-50 -26 -12 -80 c-6 -44 -12 -94 -12 -112 -1 -17 -5 -43 -11 -58 l-10 -26 -67 47 c-38 26 -84 60 -104 75 -41 32 -75 37 -105 14 -10 -8 -27 -15 -36 -15 -23 0 -32 -18 -18 -35 12 -14 145 -106 165 -114 6 -2 26 -17 46 -32 20 -16 40 -29 44 -29 12 0 85 -61 85 -71 0 -9 46 -113 78 -176 9 -18 23 -33 30 -33 21 0 83 32 88 45 3 6 -16 60 -42 120 -45 106 -46 110 -40 184 4 42 13 110 21 151 22 124 27 187 12 193 -6 2 -34 -7 -62 -22z"
       id="path222" />
    <path
       d="M5312 1908 c-52 -66 -183 -229 -232 -288 -117 -143 -119 -147 -107 -163 7 -9 32 -21 56 -27 l45 -12 38 44 c21 23 38 46 38 49 0 25 78 10 210 -40 l45 -17 3 -66 c2 -49 8 -70 22 -83 22 -20 91 -38 103 -26 4 4 1 95 -8 202 -8 107 -16 239 -16 294 -2 144 -5 154 -59 176 -72 29 -83 26 -138 -43z m78 -224 l0 -106 -27 5 c-43 8 -107 34 -110 44 -2 6 18 38 44 73 26 35 52 69 58 77 5 7 16 13 22 13 10 0 13 -28 13 -106z"
       id="path224" />
    <path
       d="M6918 1903 c-21 -24 -49 -93 -42 -104 13 -22 55 -7 91 32 46 49 56 66 48 79 -11 17 -80 12 -97 -7z"
       id="path226" />
    <path
       d="M7750 1867 c-21 -11 -25 -20 -23 -53 1 -21 9 -64 17 -94 48 -184 55 -231 35 -229 -8 1 -77 68 -154 149 l-140 147 -51 2 c-27 0 -58 -5 -67 -11 -18 -14 -16 -30 23 -193 7 -27 18 -75 25 -105 7 -30 19 -77 25 -105 7 -27 16 -70 21 -95 19 -111 34 -125 105 -95 28 12 35 19 29 32 -4 10 -10 38 -15 63 -14 79 -40 188 -50 215 -14 36 -13 55 3 55 7 0 80 -67 161 -150 82 -82 156 -150 166 -150 21 0 81 20 96 32 9 6 8 21 -1 56 -7 26 -20 81 -29 122 -10 41 -23 100 -31 130 -7 30 -21 91 -30 135 -27 126 -37 150 -65 153 -14 1 -36 -4 -50 -11z"
       id="path228" />
    <path
       d="M5934 1796 c-83 -20 -152 -82 -195 -173 -19 -41 -23 -66 -23 -164 l-1 -116 35 -52 c75 -111 212 -157 334 -114 53 19 139 104 134 131 -2 9 -23 26 -46 39 l-44 25 -42 -45 c-47 -48 -82 -60 -141 -47 -80 18 -119 93 -108 205 13 135 95 227 189 212 49 -8 102 -50 112 -90 8 -30 12 -32 56 -35 60 -4 77 9 69 51 -16 84 -93 151 -198 173 -71 16 -66 16 -131 0z"
       id="path230" />
    <path
       d="M6434 1736 c-15 -12 -18 -39 -25 -212 -4 -110 -10 -243 -14 -296 l-8 -97 29 -6 c16 -3 37 -8 47 -10 10 -2 27 5 37 15 15 15 19 41 24 166 3 82 10 210 14 284 6 93 5 138 -2 146 -17 18 -82 24 -102 10z"
       id="path232" />
    <path
       d="M6875 1736 c-109 -27 -171 -86 -204 -196 -26 -84 -26 -117 -3 -206 32 -119 77 -172 181 -213 138 -55 310 9 376 139 22 43 25 62 25 153 0 89 -4 113 -24 159 -43 97 -87 135 -191 164 -60 16 -93 16 -160 0z m163 -120 c48 -30 56 -40 76 -100 46 -140 -15 -284 -128 -299 -67 -10 -110 7 -153 60 l-38 46 0 106 c0 95 2 109 23 139 51 70 150 92 220 48z"
       id="path234" />
  </g>
</svg>
